<?xml version="1.0" encoding="utf-8"?>
<!-- Generator: Adobe Illustrator 17.0.0, SVG Export Plug-In . SVG Version: 6.00 Build 0)  -->
<!DOCTYPE svg PUBLIC "-//W3C//DTD SVG 1.1//EN" "http://www.w3.org/Graphics/SVG/1.1/DTD/svg11.dtd">
<svg version="1.1" id="Layer_1" xmlns="http://www.w3.org/2000/svg" xmlns:xlink="http://www.w3.org/1999/xlink" x="0px" y="0px"
	 width="400.839px" height="50.573px" viewBox="0 0 400.839 50.573" enable-background="new 0 0 400.839 50.573"
	 xml:space="preserve">
<g>
	<g>
		<path fill="#000000" d="M14.687,38.572c0,0.86-0.107,1.689-0.322,2.49c-0.215,0.802-0.567,1.509-1.055,2.124
			c-0.488,0.615-1.133,1.109-1.934,1.479c-0.801,0.371-1.797,0.557-2.988,0.557c-1.113,0-2.051-0.166-2.812-0.498
			s-1.392-0.776-1.89-1.333s-0.864-1.205-1.099-1.948c-0.234-0.742-0.381-1.513-0.439-2.314c-0.059-0.077-0.103-0.165-0.132-0.264
			c-0.029-0.098-0.044-0.194-0.044-0.293c0-0.215,0.078-0.396,0.234-0.542c0.156-0.146,0.341-0.22,0.557-0.22
			c0.215,0,0.396,0.073,0.542,0.22s0.22,0.327,0.22,0.542c0,0.099-0.015,0.195-0.044,0.293c-0.029,0.099-0.073,0.187-0.132,0.264
			c0.019,0.664,0.127,1.294,0.322,1.89c0.195,0.597,0.493,1.118,0.894,1.567c0.4,0.45,0.913,0.806,1.538,1.069
			c0.625,0.264,1.387,0.396,2.285,0.396c0.957,0,1.762-0.15,2.417-0.454c0.654-0.303,1.176-0.713,1.567-1.23
			c0.391-0.517,0.674-1.103,0.85-1.758c0.176-0.654,0.264-1.333,0.264-2.036v-7.5c0-1.015-0.201-1.987-0.601-2.915
			c-0.4-0.927-0.972-1.732-1.714-2.417L4.14,19.5c-0.488-0.429-0.879-0.874-1.172-1.333c-0.293-0.458-0.518-0.913-0.674-1.362
			c-0.157-0.449-0.259-0.903-0.308-1.362c-0.049-0.458-0.073-0.923-0.073-1.392V8.865c0-0.839,0.107-1.67,0.322-2.49
			c0.215-0.82,0.566-1.553,1.055-2.197c0.488-0.645,1.132-1.162,1.934-1.553c0.801-0.391,1.797-0.586,2.988-0.586
			c1.113,0,2.055,0.176,2.827,0.527c0.771,0.352,1.401,0.82,1.89,1.406c0.488,0.586,0.854,1.255,1.099,2.007
			c0.244,0.752,0.385,1.538,0.425,2.358c0.059,0.059,0.103,0.137,0.132,0.234c0.029,0.098,0.044,0.195,0.044,0.293
			c0,0.215-0.073,0.4-0.22,0.557c-0.146,0.157-0.327,0.234-0.542,0.234c-0.215,0-0.4-0.078-0.557-0.234
			c-0.157-0.156-0.234-0.341-0.234-0.557c0-0.195,0.059-0.352,0.176-0.469c-0.04-0.645-0.151-1.274-0.337-1.89
			c-0.186-0.615-0.479-1.167-0.879-1.655c-0.4-0.488-0.913-0.879-1.538-1.172C9.872,3.387,9.11,3.24,8.212,3.24
			c-0.957,0-1.763,0.166-2.417,0.498C5.141,4.071,4.619,4.5,4.228,5.027c-0.391,0.527-0.674,1.128-0.85,1.802
			S3.115,8.182,3.115,8.865v5.186c0.039,0.996,0.19,1.88,0.454,2.651c0.264,0.772,0.737,1.46,1.421,2.065l7.061,6.24
			c1.055,0.978,1.758,1.982,2.109,3.018c0.352,1.036,0.527,2.051,0.527,3.047V38.572z"/>
	</g>
	<g>
		<path fill="#000000" d="M68.823,43.436c0.176-0.117,0.352-0.176,0.527-0.176c0.215,0,0.4,0.078,0.557,0.234
			c0.156,0.157,0.234,0.342,0.234,0.557c0,0.216-0.078,0.396-0.234,0.542c-0.157,0.146-0.342,0.22-0.557,0.22
			c-0.176,0-0.352-0.059-0.527-0.176H57.661V9.422c0-0.859,0.098-1.694,0.293-2.505c0.195-0.81,0.537-1.533,1.025-2.168
			c0.488-0.634,1.138-1.147,1.948-1.538c0.81-0.391,1.821-0.586,3.032-0.586h4.863c0.176-0.117,0.352-0.176,0.527-0.176
			c0.215,0,0.4,0.078,0.557,0.234c0.156,0.157,0.234,0.342,0.234,0.557c0,0.215-0.078,0.4-0.234,0.557
			c-0.157,0.157-0.342,0.234-0.557,0.234c-0.157,0-0.333-0.068-0.527-0.205h-4.863c-0.996,0-1.821,0.161-2.476,0.483
			c-0.655,0.322-1.177,0.747-1.567,1.274c-0.391,0.527-0.664,1.128-0.82,1.802c-0.157,0.674-0.234,1.353-0.234,2.036v5.215h8.232
			c0.176-0.117,0.352-0.176,0.527-0.176c0.215,0,0.4,0.073,0.557,0.22c0.156,0.146,0.234,0.327,0.234,0.542
			c0,0.215-0.078,0.4-0.234,0.557c-0.157,0.157-0.342,0.234-0.557,0.234c-0.176,0-0.352-0.059-0.527-0.176h-8.232v27.598H68.823z"/>
	</g>
	<g>
		<path fill="#000000" d="M124.423,38.572c0,0.86-0.107,1.689-0.322,2.49c-0.215,0.802-0.567,1.509-1.055,2.124
			c-0.488,0.615-1.133,1.109-1.934,1.479c-0.801,0.371-1.777,0.557-2.93,0.557c-1.191,0-2.188-0.186-2.988-0.557
			c-0.801-0.37-1.44-0.864-1.919-1.479c-0.479-0.615-0.82-1.322-1.025-2.124c-0.205-0.801-0.308-1.63-0.308-2.49V8.865
			c0-0.839,0.103-1.67,0.308-2.49s0.546-1.553,1.025-2.197c0.479-0.645,1.118-1.162,1.919-1.553
			c0.801-0.391,1.797-0.586,2.988-0.586c1.113,0,2.055,0.176,2.827,0.527c0.771,0.352,1.401,0.82,1.89,1.406
			c0.488,0.586,0.854,1.255,1.099,2.007c0.244,0.752,0.385,1.538,0.425,2.358c0.059,0.059,0.103,0.137,0.132,0.234
			c0.029,0.098,0.044,0.195,0.044,0.293c0,0.215-0.078,0.4-0.234,0.557c-0.157,0.157-0.342,0.234-0.557,0.234
			c-0.215,0-0.396-0.078-0.542-0.234c-0.146-0.156-0.22-0.341-0.22-0.557c0-0.195,0.059-0.352,0.176-0.469
			c-0.04-0.645-0.151-1.274-0.337-1.89c-0.186-0.615-0.479-1.167-0.879-1.655c-0.4-0.488-0.913-0.879-1.538-1.172
			c-0.625-0.293-1.387-0.439-2.285-0.439c-0.957,0-1.758,0.166-2.402,0.498c-0.645,0.333-1.162,0.762-1.553,1.289
			c-0.391,0.527-0.669,1.128-0.835,1.802c-0.166,0.674-0.249,1.353-0.249,2.036v29.707c0,0.703,0.083,1.382,0.249,2.036
			c0.166,0.655,0.444,1.241,0.835,1.758c0.391,0.518,0.908,0.928,1.553,1.23c0.645,0.304,1.445,0.454,2.402,0.454
			c0.957,0,1.758-0.15,2.402-0.454c0.645-0.303,1.162-0.713,1.553-1.23c0.391-0.517,0.669-1.103,0.835-1.758
			c0.166-0.654,0.249-1.333,0.249-2.036V27.908h-4.57c-0.117,0.117-0.274,0.176-0.469,0.176c-0.215,0-0.4-0.077-0.557-0.234
			c-0.157-0.156-0.234-0.341-0.234-0.557c0-0.215,0.078-0.396,0.234-0.542c0.156-0.146,0.341-0.22,0.557-0.22
			c0.195,0,0.352,0.059,0.469,0.176h5.771V38.572z"/>
	</g>
	<g>
		<path fill="#000000" d="M178.896,43.963c0.117,0.157,0.176,0.322,0.176,0.498c0,0.215-0.073,0.396-0.22,0.542
			s-0.327,0.22-0.542,0.22s-0.4-0.073-0.557-0.22s-0.234-0.327-0.234-0.542c0-0.176,0.059-0.341,0.176-0.498V15.838h-10.078v28.125
			c0.117,0.157,0.176,0.322,0.176,0.498c0,0.215-0.078,0.396-0.234,0.542c-0.157,0.146-0.342,0.22-0.557,0.22
			c-0.215,0-0.396-0.073-0.542-0.22s-0.22-0.327-0.22-0.542c0-0.176,0.059-0.341,0.176-0.498V9.481c0-0.859,0.098-1.699,0.293-2.52
			c0.195-0.82,0.537-1.553,1.025-2.197c0.488-0.645,1.138-1.162,1.948-1.553c0.81-0.391,1.821-0.586,3.032-0.586h6.182V43.963z
			 M177.695,14.637V3.826h-4.98c-0.996,0-1.821,0.166-2.476,0.498c-0.655,0.333-1.177,0.767-1.567,1.304
			c-0.391,0.538-0.664,1.143-0.82,1.816c-0.157,0.674-0.234,1.353-0.234,2.036v5.156H177.695z"/>
	</g>
	<g>
		<path fill="#000000" d="M233.647,43.963c0.117,0.157,0.176,0.322,0.176,0.498c0,0.215-0.073,0.396-0.22,0.542
			s-0.327,0.22-0.542,0.22s-0.4-0.073-0.557-0.22s-0.234-0.327-0.234-0.542c0-0.176,0.059-0.341,0.176-0.498V4.324l-10.078,10.723
			v28.916c0.117,0.157,0.176,0.322,0.176,0.498c0,0.215-0.073,0.396-0.22,0.542s-0.327,0.22-0.542,0.22s-0.4-0.073-0.557-0.22
			s-0.234-0.327-0.234-0.542c0-0.176,0.059-0.341,0.176-0.498V3.358c-0.117-0.176-0.176-0.352-0.176-0.527
			c0-0.215,0.078-0.4,0.234-0.557c0.156-0.156,0.342-0.234,0.557-0.234s0.396,0.078,0.542,0.234c0.146,0.157,0.22,0.342,0.22,0.557
			c0,0.176-0.059,0.352-0.176,0.527v10.02l10.078-10.752h1.201V43.963z"/>
	</g>
	<g>
		<path fill="#000000" d="M277.866,38.572c0,0.703,0.083,1.382,0.249,2.036c0.166,0.655,0.444,1.241,0.835,1.758
			c0.391,0.518,0.908,0.928,1.553,1.23c0.645,0.304,1.445,0.454,2.402,0.454c0.898,0,1.66-0.132,2.285-0.396
			s1.138-0.619,1.538-1.069c0.4-0.449,0.693-0.971,0.879-1.567c0.186-0.596,0.298-1.226,0.337-1.89
			c-0.059-0.077-0.103-0.165-0.132-0.264c-0.029-0.098-0.044-0.194-0.044-0.293c0-0.215,0.073-0.396,0.22-0.542
			s0.327-0.22,0.542-0.22s0.4,0.073,0.557,0.22s0.234,0.327,0.234,0.542c0,0.099-0.015,0.195-0.044,0.293
			c-0.029,0.099-0.073,0.187-0.132,0.264c-0.039,0.802-0.181,1.572-0.425,2.314c-0.244,0.743-0.61,1.392-1.099,1.948
			s-1.118,1.001-1.89,1.333s-1.714,0.498-2.827,0.498c-1.191,0-2.188-0.186-2.988-0.557c-0.801-0.37-1.44-0.864-1.919-1.479
			s-0.82-1.322-1.025-2.124c-0.205-0.801-0.308-1.63-0.308-2.49V8.865c0-0.839,0.103-1.67,0.308-2.49s0.547-1.553,1.025-2.197
			s1.118-1.162,1.919-1.553c0.801-0.391,1.797-0.586,2.988-0.586c1.113,0,2.056,0.176,2.827,0.527s1.401,0.82,1.89,1.406
			s0.854,1.255,1.099,2.007c0.244,0.752,0.386,1.538,0.425,2.358c0.059,0.059,0.103,0.137,0.132,0.234
			c0.029,0.098,0.044,0.195,0.044,0.293c0,0.215-0.078,0.4-0.234,0.557c-0.156,0.157-0.342,0.234-0.557,0.234
			s-0.396-0.078-0.542-0.234c-0.146-0.156-0.22-0.341-0.22-0.557c0-0.195,0.059-0.352,0.176-0.469
			c-0.039-0.645-0.151-1.274-0.337-1.89s-0.479-1.167-0.879-1.655c-0.4-0.488-0.913-0.879-1.538-1.172s-1.387-0.439-2.285-0.439
			c-0.957,0-1.758,0.166-2.402,0.498c-0.645,0.333-1.162,0.762-1.553,1.289s-0.669,1.128-0.835,1.802s-0.249,1.353-0.249,2.036
			V38.572z"/>
	</g>
	<g>
		<path fill="#000000" d="M343.149,43.963c0.117,0.157,0.176,0.322,0.176,0.498c0,0.215-0.073,0.396-0.22,0.542
			s-0.327,0.22-0.542,0.22s-0.4-0.073-0.557-0.22s-0.234-0.327-0.234-0.542c0-0.176,0.059-0.341,0.176-0.498V15.838H331.87v28.125
			c0.117,0.157,0.176,0.322,0.176,0.498c0,0.215-0.073,0.396-0.22,0.542s-0.327,0.22-0.542,0.22s-0.4-0.073-0.557-0.22
			s-0.234-0.327-0.234-0.542c0-0.176,0.059-0.341,0.176-0.498V3.358c-0.117-0.176-0.176-0.352-0.176-0.527
			c0-0.215,0.078-0.4,0.234-0.557c0.156-0.156,0.342-0.234,0.557-0.234s0.396,0.078,0.542,0.234c0.146,0.157,0.22,0.342,0.22,0.557
			c0,0.176-0.059,0.352-0.176,0.527v11.279h10.078V3.358c-0.117-0.176-0.176-0.352-0.176-0.527c0-0.215,0.078-0.4,0.234-0.557
			c0.156-0.156,0.342-0.234,0.557-0.234s0.396,0.078,0.542,0.234c0.146,0.157,0.22,0.342,0.22,0.557
			c0,0.176-0.059,0.352-0.176,0.527V43.963z"/>
	</g>
	<g>
		<path fill="#000000" d="M397.9,43.963c0.117,0.157,0.176,0.322,0.176,0.498c0,0.215-0.073,0.396-0.22,0.542
			s-0.327,0.22-0.542,0.22s-0.4-0.073-0.557-0.22s-0.234-0.327-0.234-0.542c0-0.176,0.059-0.341,0.176-0.498V15.838h-10.078v28.125
			c0.117,0.157,0.176,0.322,0.176,0.498c0,0.215-0.078,0.396-0.234,0.542s-0.342,0.22-0.557,0.22s-0.396-0.073-0.542-0.22
			s-0.22-0.327-0.22-0.542c0-0.176,0.059-0.341,0.176-0.498V9.481c0-0.859,0.098-1.699,0.293-2.52s0.537-1.553,1.025-2.197
			s1.138-1.162,1.948-1.553c0.811-0.391,1.821-0.586,3.032-0.586h6.182V43.963z M396.699,14.637V3.826h-4.98
			c-0.996,0-1.821,0.166-2.476,0.498c-0.654,0.333-1.177,0.767-1.567,1.304c-0.391,0.538-0.664,1.143-0.82,1.816
			s-0.234,1.353-0.234,2.036v5.156H396.699z"/>
	</g>
	<circle fill="#FFC5C8" cx="35.779" cy="25.287" r="15"/>
	<circle fill="#FACD9E" cx="90.529" cy="25.287" r="15"/>
	<circle fill="#F7D617" cx="145.28" cy="25.287" r="15"/>
	<circle fill="#C0E486" cx="200.031" cy="25.287" r="15"/>
	<circle fill="#A1E6C7" cx="254.782" cy="25.287" r="15"/>
	<circle fill="#99E1F4" cx="309.533" cy="25.287" r="15"/>
	<circle fill="#E7C8F8" cx="364.284" cy="25.287" r="15"/>
</g>
<g>
</g>
<g>
</g>
<g>
</g>
<g>
</g>
<g>
</g>
<g>
</g>
</svg>

