<?xml version="1.0" encoding="utf-8"?>
<!-- Generator: Adobe Illustrator 17.0.0, SVG Export Plug-In . SVG Version: 6.00 Build 0)  -->
<!DOCTYPE svg PUBLIC "-//W3C//DTD SVG 1.1//EN" "http://www.w3.org/Graphics/SVG/1.1/DTD/svg11.dtd">
<svg version="1.1" id="Layer_1" xmlns="http://www.w3.org/2000/svg" xmlns:xlink="http://www.w3.org/1999/xlink" x="0px" y="0px"
	 width="414px" height="246px" viewBox="0 0 414 246" enable-background="new 0 0 414 246" xml:space="preserve">
<rect x="0" y="0" fill="#2D3137" width="414" height="246"/>
<g>
	<defs>
		<rect id="SVGID_1_" x="15" y="15" width="384" height="216"/>
	</defs>
	<clipPath id="SVGID_2_">
		<use xlink:href="#SVGID_1_"  overflow="visible"/>
	</clipPath>
	<rect x="63" y="87" clip-path="url(#SVGID_2_)" fill="#373C43" width="1080" height="24"/>
	<g clip-path="url(#SVGID_2_)">
		<path fill="#636B78" d="M34.188,34.496H32.51V21.592l-3.003,0.891l-0.394-0.932l3.915-2.051h1.16V34.496z"/>
		<path fill="#F987DE" d="M71.907,18.505h1.844c0.009,0.163-0.082,0.282-0.132,0.359c-0.085,0.132-0.096,0.199-0.096,0.325
			l0.021,14.271c0,0.332,0.017,0.679,0.104,1.015h-1.719c-0.088-0.266-0.104-0.547-0.104-0.808v-0.953
			c-0.689,1.231-1.984,2.004-3.387,2.004c-2.12,0-4.36-1.769-4.36-5.817c0-4.191,2.524-5.676,4.614-5.676
			c1.515,0,2.688,0.76,3.215,1.887V18.505z M65.752,28.619c0,3.612,1.845,4.576,3.086,4.576c1.144,0,2.279-0.765,2.701-2.08
			c0.178-0.554,0.229-1.168,0.229-1.995c0-1.224-0.048-1.836-0.185-2.346c-0.434-1.628-1.851-2.139-2.812-2.139
			C67.51,24.636,65.752,25.498,65.752,28.619z"/>
		<path fill="#F987DE" d="M85.55,27.141c0.107,0.637,0.143,1.341,0.076,2.094h-7.782c0.131,3.284,2.254,4.092,3.722,4.092
			c1.09,0,2.124-0.433,2.838-1.234l0.953,0.932c-0.939,1.129-2.36,1.702-3.926,1.702c-2.978,0-5.265-1.955-5.265-5.608
			c0-4.003,2.423-5.875,5.042-5.875C83.005,23.243,85.052,24.197,85.55,27.141z M83.928,27.909c0.206-1.778-1.063-3.338-2.84-3.338
			c-1.177,0-2.846,0.752-3.188,3.338H83.928z"/>
		<path fill="#F987DE" d="M98.6,19.873l-0.787,1.595c-0.074,0.007-0.182-0.036-0.195-0.2c-0.008-0.103,0.011-0.168-0.066-0.285
			c-0.461-0.697-1.34-1.255-2.396-1.255c-0.907,0-1.753,0.404-2.206,1.214c-0.41,0.734-0.399,1.575-0.399,2.369v0.849h3.583v1.367
			h-3.583v8.948h-1.657v-8.948h-2.382V24.16h2.382v-1.077c0-0.973,0.04-1.887,0.602-2.801c0.766-1.246,2.208-1.91,3.749-1.91
			C96.624,18.372,97.815,18.928,98.6,19.873z"/>
		<path fill="#FB9593" d="M121.481,19.5v1.471h-6.918v4.702h5.592v1.45h-5.592v7.354h-1.699V19.5H121.481z"/>
		<path fill="#FB9593" d="M129.939,23.497v9.591h2.568v1.388h-7.104v-1.388h2.796v-8.182h-2.651v-1.409H129.939z M130.354,19.966
			c0,0.679-0.556,1.232-1.243,1.232s-1.243-0.554-1.243-1.232s0.556-1.233,1.243-1.233
			C129.797,18.733,130.354,19.287,130.354,19.966z"/>
		<path fill="#FB9593" d="M138.458,18.505c0.041,0.144-0.09,0.237-0.13,0.269c-0.113,0.089-0.14,0.142-0.14,0.27v6.152
			c0.696-1.205,1.983-1.949,3.38-1.949c2.154,0,4.409,1.78,4.409,5.611c0,3.978-2.336,5.889-4.584,5.889
			c-1.316,0-2.526-0.651-3.246-1.721l-0.601,1.45h-1.118v-15.97H138.458z M138.476,26.335c-0.249,0.604-0.287,1.309-0.287,2.301
			c0,0.949-0.008,1.595,0.067,2.166c0.276,2.09,1.933,2.39,2.683,2.39c1.072,0,3.242-0.613,3.242-3.971
			c0-3.871-2.185-4.488-3.215-4.488C139.881,24.733,138.884,25.347,138.476,26.335z"/>
		<path fill="#FB9593" d="M157.128,19.955c-0.081,0.046-0.159,0.05-0.193,0.05c-0.095,0-0.171-0.027-0.256-0.027
			c-0.095,0-0.152,0.037-0.217,0.075c-2.805,1.654-4.465,4.711-4.465,8.14c0,3.729,1.934,7.256,5.214,9.163l-0.787,1.263
			c-3.802-1.996-6.097-5.986-6.097-10.346c0-4.394,2.361-8.154,6.076-9.788L157.128,19.955z"/>
		<path fill="#FF9B00" d="M160.636,23.518h1.761v1.926c0.805-1.222,2.156-2.196,3.645-2.196c1.249,0,2.373,0.702,2.919,1.936
			c0.391,0.881,0.396,1.786,0.396,2.643v6.649h-1.698v-6.608c0-0.774-0.005-1.715-0.599-2.424c-0.394-0.471-0.936-0.694-1.486-0.694
			c-1.159,0-2.213,0.969-2.631,1.526c-0.456,0.607-0.545,1.144-0.545,1.882v6.318h-1.761V23.518z"/>
		<path fill="#FB9593" d="M173.32,18.505c3.899,1.795,6.421,5.683,6.421,9.957c0,4.312-2.565,8.3-6.546,10.197l-0.455-1.45
			c3.243-1.717,5.303-5.067,5.303-8.679c0-3.562-2.006-6.848-5.179-8.535L173.32,18.505z"/>
		<path fill="#48D07D" d="M188.726,27.082c-0.788,0-1.419-0.622-1.419-1.378c0-0.755,0.63-1.377,1.419-1.377s1.42,0.623,1.42,1.378
			S189.515,27.082,188.726,27.082z M188.726,34.746c-0.788,0-1.419-0.622-1.419-1.378c0-0.755,0.63-1.377,1.419-1.377
			s1.42,0.623,1.42,1.378S189.515,34.746,188.726,34.746z"/>
		<path fill="#636B78" d="M33.051,43.417c2.441,0,4.338,1.871,4.338,4.201c0,2.151-1.535,3.689-2.631,4.716
			c-1.078,1.01-2.823,2.496-4.07,4.671h6.276c0.109,0,0.159-0.015,0.257-0.099c0.05-0.043,0.167-0.16,0.323-0.108v1.678h-8.783
			v-1.057c1.259-2.484,2.637-4.027,4.345-5.566c1.084-0.977,2.62-2.29,2.62-4.112c0-1.607-1.279-2.842-2.872-2.842
			c-1.307,0-2.204,0.813-2.557,1.362c-0.128,0.199-0.067,0.349-0.209,0.552l-1.222-0.973C29.746,44.334,31.354,43.417,33.051,43.417
			z"/>
		<path fill="#0BCCC4" d="M117.939,47.497v9.591h2.569v1.388h-7.105v-1.388h2.796v-8.182h-2.651v-1.409H117.939z M118.354,43.966
			c0,0.679-0.556,1.232-1.244,1.232c-0.687,0-1.243-0.554-1.243-1.232s0.556-1.233,1.244-1.233
			C117.798,42.733,118.354,43.287,118.354,43.966z"/>
		<path fill="#0BCCC4" d="M134.6,43.873l-0.787,1.595c-0.074,0.007-0.182-0.036-0.195-0.2c-0.008-0.103,0.011-0.168-0.066-0.285
			c-0.461-0.697-1.339-1.255-2.396-1.255c-0.906,0-1.753,0.404-2.205,1.214c-0.41,0.734-0.399,1.575-0.399,2.369v0.849h3.584v1.367
			h-3.584v8.948h-1.657v-8.948h-2.382V48.16h2.382v-1.077c0-0.973,0.04-1.887,0.602-2.801c0.767-1.246,2.208-1.91,3.749-1.91
			C132.624,42.372,133.815,42.928,134.6,43.873z"/>
		<path fill="#BAC8DD" d="M148.636,47.518h1.761v1.926c0.805-1.222,2.156-2.196,3.645-2.196c1.249,0,2.373,0.702,2.919,1.936
			c0.391,0.881,0.396,1.786,0.396,2.643v6.649h-1.698v-6.608c0-0.774-0.005-1.715-0.599-2.424c-0.394-0.471-0.936-0.694-1.486-0.694
			c-1.159,0-2.213,0.969-2.631,1.526c-0.456,0.607-0.545,1.144-0.545,1.882v6.318h-1.761V47.518z"/>
		<path fill="#F987DE" d="M181.936,47.953v1.471h-9.859v-1.471H181.936z M181.936,52.924v1.471h-9.859v-1.471H181.936z"/>
		<path fill="#F987DE" d="M193.936,47.953v1.471h-9.859v-1.471H193.936z M193.936,52.924v1.471h-9.859v-1.471H193.936z"/>
		<path fill="#C0B399" d="M217.792,51.251c0,5.139-2.562,7.494-4.732,7.494c-2.365,0-4.858-2.79-4.858-7.627
			c0-4.786,2.458-7.701,4.832-7.701C215.333,43.417,217.792,46.146,217.792,51.251z M213.009,44.887
			c-1.481,0-3.238,2.112-3.238,5.938c0,1.058,0.123,2.005,0.334,2.827l5.265-6.817C214.728,45.515,213.828,44.887,213.009,44.887z
			 M210.659,55.173c0.65,1.312,1.57,2.041,2.458,2.041c1.319,0,3.123-1.589,3.123-5.769c0-1.163-0.116-2.163-0.315-3.006
			L210.659,55.173z"/>
		<path fill="#48D07D" d="M224.726,51.082c-0.788,0-1.419-0.622-1.419-1.378c0-0.755,0.63-1.377,1.419-1.377s1.42,0.623,1.42,1.378
			S225.515,51.082,224.726,51.082z M224.726,58.746c-0.788,0-1.419-0.622-1.419-1.378c0-0.755,0.63-1.377,1.419-1.377
			s1.42,0.623,1.42,1.378S225.515,58.746,224.726,58.746z"/>
		<path fill="#0BCCC4" d="M247.184,47.518l-0.062,2.113c0.718-1.568,2.344-2.378,3.946-2.378c1.231,0,2.241,0.491,2.931,1.197
			l-0.808,1.657c-0.185-0.176-0.263-0.366-0.407-0.55c-0.308-0.393-0.888-0.821-1.811-0.821c-0.775,0-2.084,0.273-3.081,1.848
			c-0.745,1.179-0.771,1.906-0.771,2.568v5.344h-1.74V47.518H247.184z"/>
		<path fill="#0BCCC4" d="M265.549,51.141c0.108,0.637,0.143,1.341,0.076,2.094h-7.782c0.131,3.284,2.255,4.092,3.722,4.092
			c1.09,0,2.124-0.433,2.839-1.234l0.952,0.932c-0.938,1.129-2.36,1.702-3.925,1.702c-2.979,0-5.266-1.955-5.266-5.608
			c0-4.003,2.423-5.875,5.042-5.875C263.005,47.243,265.051,48.197,265.549,51.141z M263.927,51.909
			c0.206-1.778-1.063-3.338-2.84-3.338c-1.177,0-2.847,0.752-3.188,3.338H263.927z"/>
		<path fill="#0BCCC4" d="M273.4,44.266c0.084,0.243-0.088,0.391-0.136,0.648c-0.113,0.608-0.278,2.583-0.278,2.583h3.583v1.43
			h-3.604c-0.139,1.425-0.208,2.857-0.208,4.29c0,1.589,0.058,2.012,0.07,2.108c0.176,1.317,1.026,1.77,1.845,1.77
			c0.676,0,1.525-0.31,2.456-1.001l0.539,1.367c-0.928,0.679-2.2,1.225-3.506,1.225c-1.119,0-1.977-0.435-2.496-1.167
			c-0.639-0.899-0.647-2.001-0.647-2.985c0-1.862,0.075-3.729,0.228-5.606h-2.568l0.021-1.409h2.61l0.207-2.941L273.4,44.266z"/>
		<path fill="#0BCCC4" d="M282.251,47.518v6.11c0,0.735-0.003,1.593,0.387,2.366c0.437,0.867,1.237,1.342,2.096,1.342
			c1.057,0,2.031-0.708,2.533-1.626c0.367-0.669,0.433-1.321,0.433-2.165v-6.028h1.739v9.963c0,0.321,0.02,0.667,0.125,0.994h-1.823
			c-0.046-0.283-0.049-0.569-0.041-0.849l0.021-0.829c-0.715,1.21-2.012,1.947-3.387,1.947c-1.427,0-2.768-0.796-3.407-2.237
			c-0.429-0.963-0.438-1.925-0.436-2.88l0.021-6.11H282.251z"/>
		<path fill="#0BCCC4" d="M295.184,47.518l-0.062,2.113c0.718-1.568,2.344-2.378,3.946-2.378c1.231,0,2.241,0.491,2.931,1.197
			l-0.808,1.657c-0.185-0.176-0.263-0.366-0.407-0.55c-0.308-0.393-0.888-0.821-1.811-0.821c-0.775,0-2.084,0.273-3.081,1.848
			c-0.745,1.179-0.771,1.906-0.771,2.568v5.344h-1.74V47.518H295.184z"/>
		<path fill="#0BCCC4" d="M304.636,47.518h1.761v1.926c0.805-1.222,2.156-2.196,3.644-2.196c1.249,0,2.373,0.702,2.919,1.936
			c0.391,0.881,0.396,1.786,0.396,2.643v6.649h-1.698v-6.608c0-0.774-0.005-1.715-0.599-2.424c-0.394-0.471-0.936-0.694-1.486-0.694
			c-1.159,0-2.212,0.969-2.63,1.526c-0.456,0.607-0.545,1.144-0.545,1.882v6.318h-1.761V47.518z"/>
		<path fill="#C0B399" d="M337.791,51.251c0,5.139-2.562,7.494-4.732,7.494c-2.365,0-4.858-2.79-4.858-7.627
			c0-4.786,2.458-7.701,4.832-7.701C335.333,43.417,337.791,46.146,337.791,51.251z M333.009,44.887
			c-1.481,0-3.238,2.112-3.238,5.938c0,1.058,0.123,2.005,0.334,2.827l5.265-6.817C334.728,45.515,333.827,44.887,333.009,44.887z
			 M330.658,55.173c0.65,1.312,1.57,2.041,2.458,2.041c1.319,0,3.123-1.589,3.123-5.769c0-1.163-0.116-2.163-0.315-3.006
			L330.658,55.173z"/>
		<path fill="#636B78" d="M34.623,74.501c1.552,0.567,2.569,2.081,2.569,3.86c0,2.324-1.74,4.367-4.605,4.367
			c-1.498,0-2.927-0.587-3.93-1.703l1.263-1.512c0.213,0.218,0.106,0.451,0.311,0.68c0.106,0.12,0.948,1.013,2.341,1.013
			c1.751,0,3.01-1.406,3.01-3.049c0-1.783-1.488-2.84-3.513-2.84c-0.254,0-0.508,0.018-0.76,0.053v-1.346
			c1.419-0.003,2.099-0.264,2.362-0.379c1.035-0.455,1.595-1.442,1.595-2.354c0-1.263-1.065-2.33-2.6-2.33
			c-0.925,0-1.882,0.4-2.58,1.148l-0.932-1.036c0.938-1.025,2.245-1.601,3.594-1.601c2.365,0,4.112,1.748,4.112,3.79
			C36.86,72.716,35.965,74.001,34.623,74.501z"/>
		<path fill="#0BCCC4" d="M121.55,75.141c0.107,0.637,0.143,1.341,0.076,2.094h-7.782c0.131,3.284,2.254,4.092,3.722,4.092
			c1.09,0,2.124-0.433,2.838-1.234l0.953,0.932c-0.939,1.129-2.36,1.702-3.926,1.702c-2.978,0-5.265-1.955-5.265-5.608
			c0-4.003,2.423-5.875,5.042-5.875C119.005,71.243,121.052,72.197,121.55,75.141z M119.928,75.909
			c0.206-1.778-1.063-3.338-2.84-3.338c-1.177,0-2.846,0.752-3.188,3.338H119.928z"/>
		<path fill="#0BCCC4" d="M129.877,66.526v14.562h3.23v1.388h-8.223v-1.388h3.252V67.914h-3.107v-1.388H129.877z"/>
		<path fill="#0BCCC4" d="M141.939,71.497v9.591h2.568v1.388h-7.105v-1.388h2.797v-8.182h-2.651v-1.409H141.939z M142.353,67.966
			c0,0.679-0.556,1.232-1.243,1.232s-1.243-0.554-1.243-1.232s0.556-1.233,1.243-1.233S142.353,67.287,142.353,67.966z"/>
		<path fill="#0BCCC4" d="M158.599,67.873l-0.787,1.595c-0.074,0.007-0.182-0.036-0.194-0.2c-0.009-0.103,0.011-0.168-0.066-0.285
			c-0.461-0.697-1.34-1.255-2.396-1.255c-0.907,0-1.754,0.404-2.206,1.214c-0.409,0.734-0.398,1.575-0.398,2.369v0.849h3.583v1.367
			h-3.583v8.948h-1.657v-8.948h-2.383V72.16h2.383v-1.077c0-0.973,0.04-1.887,0.602-2.801c0.767-1.246,2.208-1.91,3.748-1.91
			C156.624,66.372,157.815,66.928,158.599,67.873z"/>
		<path fill="#BAC8DD" d="M172.636,71.518h1.761v1.926c0.805-1.222,2.156-2.196,3.645-2.196c1.249,0,2.373,0.702,2.919,1.936
			c0.391,0.881,0.396,1.786,0.396,2.643v6.649h-1.698v-6.608c0-0.774-0.005-1.715-0.599-2.424c-0.394-0.471-0.936-0.694-1.486-0.694
			c-1.159,0-2.213,0.969-2.631,1.526c-0.456,0.607-0.545,1.144-0.545,1.882v6.318h-1.761V71.518z"/>
		<path fill="#F987DE" d="M205.936,71.953v1.471h-9.859v-1.471H205.936z M205.936,76.924v1.471h-9.859v-1.471H205.936z"/>
		<path fill="#F987DE" d="M217.936,71.953v1.471h-9.859v-1.471H217.936z M217.936,76.924v1.471h-9.859v-1.471H217.936z"/>
		<path fill="#C0B399" d="M238.187,82.496h-1.678V69.592l-3.003,0.891l-0.394-0.932l3.914-2.051h1.16V82.496z"/>
		<path fill="#48D07D" d="M248.726,75.082c-0.788,0-1.419-0.622-1.419-1.378c0-0.755,0.63-1.377,1.419-1.377s1.42,0.623,1.42,1.378
			S249.515,75.082,248.726,75.082z M248.726,82.746c-0.788,0-1.419-0.622-1.419-1.378c0-0.755,0.63-1.377,1.419-1.377
			s1.42,0.623,1.42,1.378S249.515,82.746,248.726,82.746z"/>
		<path fill="#0BCCC4" d="M271.184,71.518l-0.062,2.113c0.718-1.568,2.344-2.378,3.946-2.378c1.231,0,2.241,0.491,2.931,1.197
			l-0.808,1.657c-0.185-0.176-0.263-0.366-0.407-0.55c-0.308-0.393-0.888-0.821-1.811-0.821c-0.775,0-2.084,0.273-3.081,1.848
			c-0.745,1.179-0.771,1.906-0.771,2.568v5.344h-1.74V71.518H271.184z"/>
		<path fill="#0BCCC4" d="M289.549,75.141c0.108,0.637,0.143,1.341,0.076,2.094h-7.782c0.131,3.284,2.255,4.092,3.722,4.092
			c1.09,0,2.124-0.433,2.839-1.234l0.952,0.932c-0.938,1.129-2.36,1.702-3.925,1.702c-2.979,0-5.266-1.955-5.266-5.608
			c0-4.003,2.423-5.875,5.042-5.875C287.005,71.243,289.051,72.197,289.549,75.141z M287.927,75.909
			c0.206-1.778-1.063-3.338-2.84-3.338c-1.177,0-2.847,0.752-3.188,3.338H287.927z"/>
		<path fill="#0BCCC4" d="M297.4,68.266c0.084,0.243-0.088,0.391-0.136,0.648c-0.113,0.608-0.278,2.583-0.278,2.583h3.583v1.43
			h-3.604c-0.139,1.425-0.208,2.857-0.208,4.29c0,1.589,0.058,2.012,0.07,2.108c0.176,1.317,1.026,1.77,1.845,1.77
			c0.676,0,1.525-0.31,2.456-1.001l0.539,1.367c-0.928,0.679-2.2,1.225-3.506,1.225c-1.119,0-1.977-0.435-2.496-1.167
			c-0.639-0.899-0.647-2.001-0.647-2.985c0-1.862,0.075-3.729,0.228-5.606h-2.568l0.021-1.409h2.61l0.207-2.941L297.4,68.266z"/>
		<path fill="#0BCCC4" d="M306.251,71.518v6.11c0,0.735-0.003,1.593,0.387,2.366c0.437,0.867,1.237,1.342,2.095,1.342
			c1.057,0,2.031-0.708,2.533-1.626c0.367-0.669,0.433-1.321,0.433-2.165v-6.028h1.739v9.963c0,0.321,0.02,0.667,0.125,0.994h-1.823
			c-0.046-0.283-0.049-0.569-0.041-0.849l0.021-0.829c-0.715,1.21-2.012,1.947-3.387,1.947c-1.426,0-2.767-0.796-3.407-2.237
			c-0.429-0.963-0.438-1.925-0.436-2.88l0.021-6.11H306.251z"/>
		<path fill="#0BCCC4" d="M319.184,71.518l-0.062,2.113c0.718-1.568,2.344-2.378,3.946-2.378c1.231,0,2.241,0.491,2.931,1.197
			l-0.808,1.657c-0.185-0.176-0.263-0.366-0.407-0.55c-0.308-0.393-0.888-0.821-1.811-0.821c-0.775,0-2.084,0.273-3.081,1.848
			c-0.745,1.179-0.771,1.906-0.771,2.568v5.344h-1.74V71.518H319.184z"/>
		<path fill="#0BCCC4" d="M328.636,71.518h1.761v1.926c0.805-1.222,2.156-2.196,3.645-2.196c1.249,0,2.373,0.702,2.919,1.936
			c0.391,0.881,0.396,1.786,0.396,2.643v6.649h-1.698v-6.608c0-0.774-0.005-1.715-0.599-2.424c-0.394-0.471-0.936-0.694-1.486-0.694
			c-1.159,0-2.213,0.969-2.631,1.526c-0.456,0.607-0.545,1.144-0.545,1.882v6.318h-1.761V71.518z"/>
		<path fill="#C0B399" d="M358.187,82.496h-1.678V69.592l-3.003,0.891l-0.394-0.932l3.914-2.051h1.16V82.496z"/>
		<path fill="#636B78" d="M35.928,91.5v9.363h1.926v1.491h-1.926v4.122h-1.74v-4.143H28.16v-1.243l6.359-9.59H35.928z
			 M29.817,100.862h4.392v-6.691L29.817,100.862z"/>
		<path fill="#0BCCC4" d="M121.55,99.141c0.107,0.637,0.143,1.341,0.076,2.094h-7.782c0.131,3.284,2.254,4.092,3.722,4.092
			c1.09,0,2.124-0.433,2.838-1.234l0.953,0.932c-0.939,1.129-2.36,1.702-3.926,1.702c-2.978,0-5.265-1.955-5.265-5.608
			c0-4.003,2.423-5.875,5.042-5.875C119.005,95.243,121.052,96.197,121.55,99.141z M119.928,99.909
			c0.206-1.778-1.063-3.338-2.84-3.338c-1.177,0-2.846,0.752-3.188,3.338H119.928z"/>
		<path fill="#0BCCC4" d="M129.877,90.526v14.562h3.23v1.388h-8.223v-1.388h3.252V91.914h-3.107v-1.388H129.877z"/>
		<path fill="#0BCCC4" d="M144.362,98.48c-0.042-0.01-0.126-0.049-0.125-0.193c0.001-0.084,0.017-0.142-0.051-0.229
			c-0.418-0.539-1.48-1.505-3.044-1.505c-1.24,0-2.311,0.615-2.311,1.497c0,0.369,0.19,0.9,1.086,1.333
			c1.025,0.495,2.791,0.743,4.03,1.438c1.298,0.728,1.609,1.72,1.609,2.479c0,1.655-1.565,3.424-4.562,3.424
			c-1.666,0-3.342-0.543-4.629-1.74l0.994-1.719c0.118,0.055,0.107,0.192,0.106,0.226c-0.005,0.096-0.016,0.164,0.066,0.256
			c0.347,0.395,1.551,1.527,3.431,1.527c1.566,0,2.819-0.708,2.819-1.735c0-0.396-0.189-0.974-1.095-1.397
			c-0.809-0.378-2.02-0.67-2.946-1.005c-0.596-0.215-2.672-0.913-2.672-2.828c0-1.638,1.669-3.061,4.215-3.061
			c1.622,0,3.078,0.603,4.092,1.719L144.362,98.48z"/>
		<path fill="#0BCCC4" d="M157.549,99.141c0.108,0.637,0.143,1.341,0.076,2.094h-7.782c0.131,3.284,2.255,4.092,3.722,4.092
			c1.09,0,2.124-0.433,2.839-1.234l0.952,0.932c-0.938,1.129-2.36,1.702-3.925,1.702c-2.979,0-5.266-1.955-5.266-5.608
			c0-4.003,2.423-5.875,5.042-5.875C155.005,95.243,157.051,96.197,157.549,99.141z M155.927,99.909
			c0.206-1.778-1.063-3.338-2.84-3.338c-1.177,0-2.847,0.752-3.188,3.338H155.927z"/>
		<path fill="#48D07D" d="M164.726,99.082c-0.788,0-1.419-0.622-1.419-1.378c0-0.755,0.63-1.377,1.419-1.377s1.42,0.623,1.42,1.378
			S165.515,99.082,164.726,99.082z M164.726,106.746c-0.788,0-1.419-0.622-1.419-1.378c0-0.755,0.63-1.377,1.419-1.377
			s1.42,0.623,1.42,1.378S165.515,106.746,164.726,106.746z"/>
		<path fill="#0BCCC4" d="M187.184,95.518l-0.062,2.113c0.718-1.568,2.344-2.378,3.946-2.378c1.231,0,2.241,0.491,2.931,1.197
			l-0.808,1.657c-0.185-0.176-0.263-0.366-0.407-0.55c-0.308-0.393-0.888-0.821-1.811-0.821c-0.775,0-2.084,0.273-3.081,1.848
			c-0.745,1.179-0.771,1.906-0.771,2.568v5.344h-1.74V95.518H187.184z"/>
		<path fill="#0BCCC4" d="M205.549,99.141c0.108,0.637,0.143,1.341,0.076,2.094h-7.782c0.131,3.284,2.255,4.092,3.722,4.092
			c1.09,0,2.124-0.433,2.839-1.234l0.952,0.932c-0.938,1.129-2.36,1.702-3.925,1.702c-2.979,0-5.266-1.955-5.266-5.608
			c0-4.003,2.423-5.875,5.042-5.875C203.005,95.243,205.051,96.197,205.549,99.141z M203.927,99.909
			c0.206-1.778-1.063-3.338-2.84-3.338c-1.177,0-2.847,0.752-3.188,3.338H203.927z"/>
		<path fill="#0BCCC4" d="M213.4,92.266c0.084,0.243-0.088,0.391-0.136,0.648c-0.113,0.608-0.278,2.583-0.278,2.583h3.583v1.43
			h-3.604c-0.139,1.425-0.208,2.857-0.208,4.29c0,1.589,0.058,2.012,0.07,2.108c0.176,1.317,1.026,1.77,1.845,1.77
			c0.676,0,1.525-0.31,2.456-1.001l0.539,1.367c-0.928,0.679-2.2,1.225-3.506,1.225c-1.119,0-1.977-0.435-2.496-1.167
			c-0.639-0.899-0.647-2.001-0.647-2.985c0-1.862,0.075-3.729,0.228-5.606h-2.568l0.021-1.409h2.61l0.207-2.941L213.4,92.266z"/>
		<path fill="#0BCCC4" d="M222.251,95.518v6.11c0,0.735-0.003,1.593,0.387,2.366c0.437,0.867,1.237,1.342,2.096,1.342
			c1.057,0,2.031-0.708,2.533-1.626c0.367-0.669,0.433-1.321,0.433-2.165v-6.028h1.739v9.963c0,0.321,0.02,0.667,0.125,0.994h-1.823
			c-0.046-0.283-0.049-0.569-0.041-0.849l0.021-0.829c-0.715,1.21-2.012,1.947-3.387,1.947c-1.427,0-2.768-0.796-3.407-2.237
			c-0.429-0.963-0.438-1.925-0.436-2.88l0.021-6.11H222.251z"/>
		<path fill="#0BCCC4" d="M235.184,95.518l-0.062,2.113c0.718-1.568,2.344-2.378,3.946-2.378c1.231,0,2.241,0.491,2.931,1.197
			l-0.808,1.657c-0.185-0.176-0.263-0.366-0.407-0.55c-0.308-0.393-0.888-0.821-1.811-0.821c-0.775,0-2.084,0.273-3.081,1.848
			c-0.745,1.179-0.771,1.906-0.771,2.568v5.344h-1.74V95.518H235.184z"/>
		<path fill="#0BCCC4" d="M244.636,95.518h1.761v1.926c0.805-1.222,2.156-2.196,3.645-2.196c1.249,0,2.373,0.702,2.919,1.936
			c0.391,0.881,0.396,1.786,0.396,2.643v6.649h-1.698v-6.608c0-0.774-0.005-1.715-0.599-2.424c-0.394-0.471-0.936-0.694-1.486-0.694
			c-1.159,0-2.213,0.969-2.631,1.526c-0.456,0.607-0.545,1.144-0.545,1.882v6.318h-1.761V95.518z"/>
		<path fill="#FB9593" d="M277.481,91.5v1.471h-6.919v4.702h5.593v1.45h-5.593v7.354h-1.698V91.5H277.481z"/>
		<path fill="#FB9593" d="M285.939,95.497v9.591h2.568v1.388h-7.105v-1.388h2.797v-8.182h-2.651v-1.409H285.939z M286.353,91.966
			c0,0.679-0.556,1.232-1.243,1.232s-1.243-0.554-1.243-1.232s0.556-1.233,1.243-1.233S286.353,91.287,286.353,91.966z"/>
		<path fill="#FB9593" d="M294.458,90.505c0.041,0.144-0.09,0.237-0.13,0.269c-0.113,0.089-0.14,0.142-0.14,0.27v6.152
			c0.696-1.205,1.983-1.949,3.38-1.949c2.154,0,4.409,1.78,4.409,5.611c0,3.978-2.336,5.889-4.584,5.889
			c-1.316,0-2.526-0.651-3.246-1.721l-0.601,1.45h-1.118v-15.97H294.458z M294.476,98.335c-0.249,0.604-0.287,1.309-0.287,2.301
			c0,0.949-0.008,1.595,0.067,2.166c0.276,2.09,1.933,2.39,2.683,2.39c1.072,0,3.242-0.613,3.242-3.971
			c0-3.871-2.185-4.488-3.215-4.488C295.881,96.733,294.884,97.347,294.476,98.335z"/>
		<path fill="#BAC8DD" d="M313.128,91.955c-0.081,0.046-0.159,0.05-0.193,0.05c-0.095,0-0.171-0.027-0.256-0.027
			c-0.095,0-0.152,0.037-0.217,0.075c-2.805,1.654-4.464,4.711-4.464,8.14c0,3.729,1.933,7.256,5.213,9.163l-0.787,1.263
			c-3.802-1.996-6.096-5.986-6.096-10.346c0-4.394,2.361-8.154,6.076-9.788L313.128,91.955z"/>
		<path fill="#BAC8DD" d="M316.636,95.518h1.761v1.926c0.805-1.222,2.156-2.196,3.645-2.196c1.249,0,2.373,0.702,2.919,1.936
			c0.391,0.881,0.396,1.786,0.396,2.643v6.649h-1.698v-6.608c0-0.774-0.005-1.715-0.599-2.424c-0.394-0.471-0.936-0.694-1.486-0.694
			c-1.159,0-2.213,0.969-2.631,1.526c-0.456,0.607-0.545,1.144-0.545,1.882v6.318h-1.761V95.518z"/>
		<path fill="#F987DE" d="M337.335,98.128v1.595h-8.638v-1.595H337.335z"/>
		<path fill="#C0B399" d="M346.187,106.496h-1.678V93.592l-3.003,0.891l-0.394-0.932l3.914-2.051h1.16V106.496z"/>
		<path fill="#BAC8DD" d="M353.319,90.505c3.899,1.795,6.421,5.683,6.421,9.957c0,4.312-2.565,8.3-6.546,10.197l-0.455-1.45
			c3.243-1.717,5.303-5.067,5.303-8.679c0-3.562-2.006-6.848-5.179-8.535L353.319,90.505z"/>
		<path fill="#F987DE" d="M369.835,93.923v4.102h4.101v1.471h-4.101v4.495h-1.513v-4.495h-4.246v-1.471h4.246v-4.102H369.835z"/>
		<path fill="#FB9593" d="M385.48,91.5v1.471h-6.919v4.702h5.593v1.45h-5.593v7.354h-1.698V91.5H385.48z"/>
		<path fill="#FB9593" d="M393.938,95.497v9.591h2.568v1.388h-7.105v-1.388h2.797v-8.182h-2.651v-1.409H393.938z M394.353,91.966
			c0,0.679-0.556,1.232-1.243,1.232s-1.243-0.554-1.243-1.232s0.556-1.233,1.243-1.233S394.353,91.287,394.353,91.966z"/>
		<path fill="#FB9593" d="M402.458,90.505c0.041,0.144-0.09,0.237-0.13,0.269c-0.113,0.089-0.14,0.142-0.14,0.27v6.152
			c0.696-1.205,1.983-1.949,3.38-1.949c2.154,0,4.409,1.78,4.409,5.611c0,3.978-2.336,5.889-4.584,5.889
			c-1.316,0-2.526-0.651-3.246-1.721l-0.601,1.45h-1.118v-15.97H402.458z M402.476,98.335c-0.249,0.604-0.287,1.309-0.287,2.301
			c0,0.949-0.008,1.595,0.067,2.166c0.276,2.09,1.933,2.39,2.683,2.39c1.072,0,3.242-0.613,3.242-3.971
			c0-3.871-2.185-4.488-3.215-4.488C403.881,96.733,402.884,97.347,402.476,98.335z"/>
		<path d="M421.128,91.955c-0.081,0.046-0.159,0.05-0.193,0.05c-0.095,0-0.171-0.027-0.256-0.027c-0.095,0-0.152,0.037-0.217,0.075
			c-2.805,1.654-4.465,4.711-4.465,8.14c0,3.729,1.934,7.256,5.214,9.163l-0.787,1.263c-3.802-1.996-6.097-5.986-6.097-10.346
			c0-4.394,2.361-8.154,6.076-9.788L421.128,91.955z"/>
		<path d="M424.636,95.518h1.761v1.926c0.805-1.222,2.156-2.196,3.645-2.196c1.249,0,2.373,0.702,2.919,1.936
			c0.391,0.881,0.396,1.786,0.396,2.643v6.649h-1.698v-6.608c0-0.774-0.005-1.715-0.599-2.424c-0.394-0.471-0.936-0.694-1.486-0.694
			c-1.159,0-2.213,0.969-2.631,1.526c-0.456,0.607-0.545,1.144-0.545,1.882v6.318h-1.761V95.518z"/>
		<path fill="#F987DE" d="M445.335,98.128v1.595h-8.638v-1.595H445.335z"/>
		<path fill="#C0B399" d="M453.05,91.417c2.441,0,4.338,1.871,4.338,4.201c0,2.151-1.535,3.689-2.631,4.716
			c-1.079,1.01-2.823,2.496-4.07,4.671h6.275c0.11,0,0.16-0.015,0.257-0.099c0.05-0.043,0.168-0.16,0.323-0.108v1.678h-8.782v-1.057
			c1.26-2.484,2.637-4.027,4.345-5.566c1.085-0.977,2.62-2.29,2.62-4.112c0-1.607-1.279-2.842-2.873-2.842
			c-1.306,0-2.204,0.813-2.557,1.362c-0.128,0.199-0.066,0.349-0.21,0.552l-1.222-0.973
			C449.745,92.334,451.353,91.417,453.05,91.417z"/>
		<path d="M461.319,90.505c3.899,1.795,6.421,5.683,6.421,9.957c0,4.312-2.565,8.3-6.546,10.197l-0.455-1.45
			c3.243-1.717,5.303-5.067,5.303-8.679c0-3.562-2.006-6.848-5.179-8.535L461.319,90.505z"/>
		<path fill="#636B78" d="M37.129,115.52v1.512h-6.172l-0.228,4.309c0.775-0.387,1.61-0.58,2.436-0.58
			c2.504,0,4.525,1.785,4.525,4.986c0,3.242-2.139,4.998-4.724,4.998c-1.777,0-3.441-0.835-4.433-2.299l1.492-1.119
			c0.205,0.146,0.082,0.383,0.179,0.565c0.083,0.158,1.126,1.382,2.742,1.382c1.605,0,3.025-1.259,3.025-3.559
			c0-2.383-1.486-3.569-3.061-3.569c-1.021,0-2.08,0.502-2.802,1.411l-1.077-0.435l0.518-7.602H37.129z"/>
		<path fill="#636B78" d="M37.17,140.722l-1.16,1.284c-0.22-0.162-0.215-0.387-0.362-0.54c-0.092-0.096-0.753-0.625-1.748-0.625
			c-1.075,0-3.537,0.668-3.628,5.784c0.661-1.118,1.864-1.805,3.169-1.805c2.114,0,4.103,1.788,4.103,4.9
			c0,3.08-1.995,5.004-4.269,5.004c-1.332,0-2.663-0.671-3.534-1.986c-0.96-1.451-1.131-3.32-1.131-5.072
			c0-1.435,0.138-3.176,0.64-4.601c0.92-2.615,2.856-3.714,4.639-3.714C35.107,139.352,36.292,139.855,37.17,140.722z
			 M30.355,148.303c-0.198,2.795,1.167,4.932,2.992,4.932c1.269,0,2.563-1.089,2.563-3.428c0-2.577-1.423-3.515-2.625-3.515
			C32.175,146.292,31.03,147.076,30.355,148.303z"/>
		<path fill="#BAC8DD" d="M73.55,147.141c0.107,0.637,0.143,1.341,0.076,2.095h-7.782c0.131,3.283,2.254,4.092,3.722,4.092
			c1.09,0,2.124-0.434,2.838-1.233l0.953,0.932c-0.939,1.129-2.36,1.702-3.926,1.702c-2.978,0-5.265-1.955-5.265-5.608
			c0-4.003,2.423-5.876,5.042-5.876C71.005,143.243,73.052,144.197,73.55,147.141z M71.928,147.909
			c0.206-1.778-1.063-3.338-2.84-3.338c-1.177,0-2.846,0.752-3.188,3.338H71.928z"/>
		<path fill="#BAC8DD" d="M76.636,143.518h1.761v1.927c0.805-1.222,2.157-2.195,3.645-2.195c1.25,0,2.374,0.701,2.919,1.935
			c0.39,0.882,0.396,1.787,0.396,2.643v6.649h-1.699v-6.607c0-0.774-0.005-1.716-0.598-2.425c-0.394-0.471-0.937-0.694-1.487-0.694
			c-1.16,0-2.213,0.969-2.631,1.526c-0.456,0.607-0.545,1.144-0.545,1.883v6.317h-1.761V143.518z"/>
		<path fill="#BAC8DD" d="M95.907,138.505h1.844c0.009,0.164-0.082,0.283-0.132,0.359c-0.085,0.132-0.096,0.199-0.096,0.324
			l0.021,14.272c0,0.332,0.017,0.679,0.104,1.015h-1.719c-0.088-0.267-0.104-0.547-0.104-0.808v-0.953
			c-0.689,1.23-1.984,2.004-3.387,2.004c-2.12,0-4.36-1.77-4.36-5.817c0-4.19,2.524-5.675,4.614-5.675
			c1.515,0,2.688,0.76,3.215,1.887V138.505z M89.752,148.619c0,3.612,1.845,4.576,3.086,4.576c1.144,0,2.279-0.765,2.701-2.08
			c0.178-0.554,0.229-1.168,0.229-1.995c0-1.224-0.048-1.836-0.185-2.346c-0.434-1.628-1.851-2.139-2.812-2.139
			C91.51,144.636,89.752,145.497,89.752,148.619z"/>
		<path fill="#F987DE" d="M121.937,143.953v1.471h-9.86v-1.471H121.937z M121.937,148.924v1.471h-9.86v-1.471H121.937z"/>
		<path fill="#F987DE" d="M141.939,143.497v9.591h2.568v1.388h-7.105v-1.388h2.797v-8.182h-2.651v-1.409H141.939z M142.353,139.966
			c0,0.679-0.556,1.232-1.243,1.232s-1.243-0.554-1.243-1.232s0.556-1.232,1.243-1.232S142.353,139.286,142.353,139.966z"/>
		<path fill="#F987DE" d="M148.636,143.518h1.761v1.927c0.805-1.222,2.156-2.195,3.645-2.195c1.249,0,2.373,0.701,2.919,1.935
			c0.391,0.882,0.396,1.787,0.396,2.643v6.649h-1.698v-6.607c0-0.774-0.005-1.716-0.599-2.425c-0.394-0.471-0.936-0.694-1.486-0.694
			c-1.159,0-2.213,0.969-2.631,1.526c-0.456,0.607-0.545,1.144-0.545,1.883v6.317h-1.761V143.518z"/>
		<path fill="#F987DE" d="M165.4,140.266c0.084,0.244-0.088,0.392-0.136,0.648c-0.113,0.608-0.278,2.583-0.278,2.583h3.583v1.43
			h-3.604c-0.139,1.426-0.208,2.856-0.208,4.29c0,1.59,0.058,2.012,0.07,2.108c0.176,1.316,1.026,1.77,1.845,1.77
			c0.676,0,1.525-0.31,2.456-1.001l0.539,1.367c-0.928,0.679-2.2,1.225-3.506,1.225c-1.119,0-1.977-0.436-2.496-1.168
			c-0.639-0.899-0.647-2.001-0.647-2.985c0-1.862,0.075-3.729,0.228-5.605h-2.568l0.021-1.409h2.61l0.207-2.941L165.4,140.266z"/>
		<path fill="#BAC8DD" d="M181.128,139.955c-0.081,0.047-0.159,0.05-0.193,0.05c-0.095,0-0.171-0.027-0.256-0.027
			c-0.095,0-0.152,0.037-0.217,0.075c-2.805,1.653-4.465,4.711-4.465,8.14c0,3.729,1.934,7.256,5.214,9.162l-0.787,1.264
			c-3.802-1.995-6.097-5.986-6.097-10.346c0-4.394,2.361-8.154,6.076-9.788L181.128,139.955z"/>
		<path fill="#FF9B00" d="M187.184,143.518l-0.062,2.113c0.718-1.567,2.344-2.378,3.946-2.378c1.231,0,2.241,0.49,2.931,1.197
			l-0.808,1.657c-0.185-0.177-0.263-0.366-0.407-0.55c-0.308-0.394-0.888-0.821-1.811-0.821c-0.775,0-2.084,0.272-3.081,1.848
			c-0.745,1.179-0.771,1.906-0.771,2.568v5.344h-1.74v-10.979H187.184z"/>
		<path fill="#FF9B00" d="M201.087,143.269c1.702,0,3.094,0.622,3.813,1.821c0.506,0.844,0.538,1.692,0.538,2.592v6.794h-1.636
			v-1.201c-1.196,0.98-2.591,1.471-3.938,1.471c-2.291,0-3.689-1.495-3.689-3.104c0-1.216,0.785-2.497,2.515-3.133
			c1.395-0.513,3.124-0.496,4.739-0.496h0.352v-0.394c0-0.581,0.009-1.286-0.356-1.887c-0.31-0.508-0.953-1.055-2.256-1.055
			c-1.013,0-2.248,0.282-3.146,1.223l-0.85-1.099C198.199,143.744,199.609,143.269,201.087,143.269z M203.451,149.339
			c-1.14,0-2.607-0.072-3.604,0.166c-1.375,0.328-1.934,1.224-1.934,2.02c0,0.98,0.85,1.898,2.303,1.898
			c1.437,0,2.485-0.87,2.884-1.294c0.739-0.786,0.744-1.497,0.744-2.065v-0.725H203.451z"/>
		<path fill="#FF9B00" d="M209.133,143.497c0.062,0.187,0,0.348-0.04,0.475c-0.06,0.192-0.055,0.278-0.022,0.437l1.595,7.913
			l1.886-7.788h1.056l2.32,7.768c0.944-6.239,1.059-7.458,1.015-8.783h1.595c-0.472,3.681-1.08,7.343-1.822,10.979h-1.616
			l-2.029-7.104l-1.927,7.104h-1.554l-2.216-10.999H209.133z"/>
		<path fill="#FF9B00" d="M230.185,154.932v1.471h-10.357v-1.471H230.185z"/>
		<path fill="#FF9B00" d="M237.939,143.497v9.591h2.568v1.388h-7.105v-1.388h2.797v-8.182h-2.651v-1.409H237.939z M238.353,139.966
			c0,0.679-0.556,1.232-1.243,1.232s-1.243-0.554-1.243-1.232s0.556-1.232,1.243-1.232S238.353,139.286,238.353,139.966z"/>
		<path fill="#FF9B00" d="M244.636,143.518h1.761v1.927c0.805-1.222,2.156-2.195,3.645-2.195c1.249,0,2.373,0.701,2.919,1.935
			c0.391,0.882,0.396,1.787,0.396,2.643v6.649h-1.698v-6.607c0-0.774-0.005-1.716-0.599-2.425c-0.394-0.471-0.936-0.694-1.486-0.694
			c-1.159,0-2.213,0.969-2.631,1.526c-0.456,0.607-0.545,1.144-0.545,1.883v6.317h-1.761V143.518z"/>
		<path fill="#FF9B00" d="M258.189,143.518v1.678c0.745-1.198,2.057-1.926,3.464-1.926c2.157,0,4.449,1.729,4.449,5.599
			c0,4.021-2.359,5.9-4.601,5.9c-1.332,0-2.56-0.658-3.291-1.743v5.448h-1.761l-0.021-14.956H258.189z M258.477,146.331
			c-0.242,0.569-0.29,1.236-0.29,2.161c0,1.589-0.007,2.492,0.314,3.231c0.433,0.997,1.467,1.513,2.507,1.513
			c1.027,0,3.296-0.554,3.296-4.012c0-3.979-2.322-4.482-3.285-4.482C259.915,144.742,258.894,145.346,258.477,146.331z"/>
		<path fill="#FF9B00" d="M270.251,143.518v6.111c0,0.735-0.003,1.593,0.387,2.366c0.437,0.867,1.237,1.341,2.096,1.341
			c1.057,0,2.031-0.708,2.533-1.626c0.367-0.669,0.433-1.32,0.433-2.164v-6.028h1.739v9.964c0,0.321,0.02,0.666,0.125,0.994h-1.823
			c-0.046-0.283-0.049-0.569-0.041-0.85l0.021-0.828c-0.715,1.21-2.012,1.947-3.387,1.947c-1.427,0-2.768-0.796-3.407-2.236
			c-0.429-0.964-0.438-1.926-0.436-2.88l0.021-6.111H270.251z"/>
		<path fill="#FF9B00" d="M285.4,140.266c0.084,0.244-0.088,0.392-0.136,0.648c-0.113,0.608-0.278,2.583-0.278,2.583h3.583v1.43
			h-3.604c-0.139,1.426-0.208,2.856-0.208,4.29c0,1.59,0.058,2.012,0.07,2.108c0.176,1.316,1.026,1.77,1.845,1.77
			c0.676,0,1.525-0.31,2.456-1.001l0.539,1.367c-0.928,0.679-2.2,1.225-3.506,1.225c-1.119,0-1.977-0.436-2.496-1.168
			c-0.639-0.899-0.647-2.001-0.647-2.985c0-1.862,0.075-3.729,0.228-5.605h-2.568l0.021-1.409h2.61l0.207-2.941L285.4,140.266z"/>
		<path fill="#BAC8DD" d="M301.128,139.955c-0.081,0.047-0.159,0.05-0.193,0.05c-0.095,0-0.171-0.027-0.256-0.027
			c-0.095,0-0.152,0.037-0.217,0.075c-2.805,1.653-4.465,4.711-4.465,8.14c0,3.729,1.934,7.256,5.214,9.162l-0.787,1.264
			c-3.802-1.995-6.097-5.986-6.097-10.346c0-4.394,2.361-8.154,6.076-9.788L301.128,139.955z"/>
		<path fill="#AAC200" d="M307.578,143l-0.58,1.595l-1.326-0.331l0.518-1.615c0.13-0.404,0.234-0.857,0.234-1.328
			c0-0.521-0.15-1.001-0.15-1.521c0-0.948,0.562-1.318,1.024-1.318c0.472,0,1.081,0.395,1.081,1.481
			C308.378,140.593,308.174,141.358,307.578,143z M311.72,143l-0.58,1.595l-1.326-0.331l0.519-1.615
			c0.129-0.404,0.233-0.857,0.233-1.328c0-0.521-0.15-1.001-0.15-1.521c0-0.948,0.562-1.318,1.025-1.318
			c0.471,0,1.08,0.395,1.08,1.481C312.521,140.593,312.316,141.358,311.72,143z"/>
		<path fill="#AAC200" d="M320.965,139.521c0.964,0,1.892,0.024,2.83,0.507c1.412,0.729,2.142,2.191,2.142,3.704
			c0,1.516-0.729,2.948-2.111,3.651c-0.908,0.462-1.805,0.485-2.736,0.485h-2.941v6.607h-1.74v-14.955H320.965z M318.127,146.397
			h3.024c0.589,0,1.159-0.015,1.736-0.306c0.866-0.438,1.329-1.33,1.329-2.283c0-0.974-0.484-1.926-1.417-2.393
			c-0.609-0.307-1.21-0.321-1.835-0.321h-2.817L318.127,146.397z"/>
		<path fill="#AAC200" d="M331.184,143.518l-0.062,2.113c0.718-1.567,2.344-2.378,3.946-2.378c1.231,0,2.241,0.49,2.931,1.197
			l-0.808,1.657c-0.185-0.177-0.263-0.366-0.407-0.55c-0.308-0.394-0.888-0.821-1.811-0.821c-0.775,0-2.084,0.272-3.081,1.848
			c-0.745,1.179-0.771,1.906-0.771,2.568v5.344h-1.74v-10.979H331.184z"/>
		<path fill="#AAC200" d="M345.938,143.497v9.591h2.568v1.388h-7.105v-1.388h2.797v-8.182h-2.651v-1.409H345.938z M346.353,139.966
			c0,0.679-0.556,1.232-1.243,1.232s-1.243-0.554-1.243-1.232s0.556-1.232,1.243-1.232S346.353,139.286,346.353,139.966z"/>
		<path fill="#AAC200" d="M352.636,143.518h1.761v1.927c0.805-1.222,2.156-2.195,3.645-2.195c1.249,0,2.373,0.701,2.919,1.935
			c0.391,0.882,0.396,1.787,0.396,2.643v6.649h-1.698v-6.607c0-0.774-0.005-1.716-0.599-2.425c-0.394-0.471-0.936-0.694-1.486-0.694
			c-1.159,0-2.213,0.969-2.631,1.526c-0.456,0.607-0.545,1.144-0.545,1.883v6.317h-1.761V143.518z"/>
		<path fill="#AAC200" d="M369.399,140.266c0.084,0.244-0.088,0.392-0.136,0.648c-0.113,0.608-0.278,2.583-0.278,2.583h3.583v1.43
			h-3.604c-0.139,1.426-0.208,2.856-0.208,4.29c0,1.59,0.058,2.012,0.07,2.108c0.176,1.316,1.026,1.77,1.845,1.77
			c0.676,0,1.525-0.31,2.456-1.001l0.539,1.367c-0.928,0.679-2.2,1.225-3.506,1.225c-1.119,0-1.977-0.436-2.496-1.168
			c-0.639-0.899-0.647-2.001-0.647-2.985c0-1.862,0.075-3.729,0.228-5.605h-2.568l0.021-1.409h2.61l0.207-2.941L369.399,140.266z"/>
		<path fill="#AAC200" d="M397.48,139.5v1.47h-6.919v4.702h5.593v1.45h-5.593v7.354h-1.698V139.5H397.48z"/>
		<path fill="#AAC200" d="M405.938,143.497v9.591h2.568v1.388h-7.105v-1.388h2.797v-8.182h-2.651v-1.409H405.938z M406.353,139.966
			c0,0.679-0.556,1.232-1.243,1.232s-1.243-0.554-1.243-1.232s0.556-1.232,1.243-1.232S406.353,139.286,406.353,139.966z"/>
		<path fill="#AAC200" d="M414.458,138.505c0.041,0.145-0.09,0.237-0.13,0.27c-0.113,0.09-0.14,0.142-0.14,0.27v6.151
			c0.696-1.205,1.983-1.948,3.38-1.948c2.154,0,4.409,1.78,4.409,5.611c0,3.978-2.336,5.888-4.584,5.888
			c-1.316,0-2.526-0.65-3.246-1.721l-0.601,1.45h-1.118v-15.971H414.458z M414.476,146.335c-0.249,0.604-0.287,1.31-0.287,2.302
			c0,0.948-0.008,1.595,0.067,2.165c0.276,2.091,1.933,2.39,2.683,2.39c1.072,0,3.242-0.612,3.242-3.971
			c0-3.871-2.185-4.488-3.215-4.488C415.881,144.732,414.884,145.347,414.476,146.335z"/>
		<path fill="#AAC200" d="M429.109,154.766c-2.764,0-5.14-2.352-5.14-5.688c0-3.388,2.396-5.809,5.19-5.809
			c2.492,0,4.882,1.986,4.882,5.772C434.042,152.678,431.706,154.766,429.109,154.766z M425.795,148.929
			c0,2.704,1.58,4.346,3.327,4.346c1.601,0,3.181-1.4,3.181-4.16c0-3.011-1.679-4.376-3.261-4.376
			C427.365,144.738,425.795,146.24,425.795,148.929z"/>
		<path fill="#AAC200" d="M436.636,143.518h1.761v1.927c0.805-1.222,2.156-2.195,3.645-2.195c1.249,0,2.373,0.701,2.919,1.935
			c0.391,0.882,0.396,1.787,0.396,2.643v6.649h-1.698v-6.607c0-0.774-0.005-1.716-0.599-2.425c-0.394-0.471-0.936-0.694-1.486-0.694
			c-1.159,0-2.213,0.969-2.631,1.526c-0.456,0.607-0.545,1.144-0.545,1.883v6.317h-1.761V143.518z"/>
		<path fill="#AAC200" d="M453.087,143.269c1.702,0,3.094,0.622,3.813,1.821c0.506,0.844,0.538,1.692,0.538,2.592v6.794h-1.636
			v-1.201c-1.196,0.98-2.591,1.471-3.938,1.471c-2.291,0-3.689-1.495-3.689-3.104c0-1.216,0.785-2.497,2.515-3.133
			c1.395-0.513,3.124-0.496,4.739-0.496h0.352v-0.394c0-0.581,0.009-1.286-0.356-1.887c-0.31-0.508-0.953-1.055-2.256-1.055
			c-1.013,0-2.248,0.282-3.146,1.223l-0.85-1.099C450.198,143.744,451.608,143.269,453.087,143.269z M455.45,149.339
			c-1.14,0-2.607-0.072-3.604,0.166c-1.375,0.328-1.934,1.224-1.934,2.02c0,0.98,0.85,1.898,2.303,1.898
			c1.437,0,2.485-0.87,2.884-1.294c0.739-0.786,0.744-1.497,0.744-2.065v-0.725H455.45z"/>
		<path fill="#AAC200" d="M468.734,146.749c-0.189-0.144-0.06-0.368-0.151-0.554c-0.063-0.129-0.964-1.437-2.836-1.437
			c-2.015,0-3.621,1.561-3.621,4.06c0,2.562,1.629,4.353,3.766,4.353c1.099,0,2.164-0.486,2.905-1.326l0.994,1.16
			c-1.046,1.127-2.513,1.74-4.044,1.74c-3.102,0-5.401-2.442-5.401-5.748c0-3.291,2.288-5.708,5.511-5.708
			c1.764,0,3.236,0.766,4.101,2.031L468.734,146.749z"/>
		<path fill="#AAC200" d="M480.734,146.749c-0.189-0.144-0.06-0.368-0.151-0.554c-0.063-0.129-0.964-1.437-2.836-1.437
			c-2.015,0-3.621,1.561-3.621,4.06c0,2.562,1.629,4.353,3.766,4.353c1.099,0,2.164-0.486,2.905-1.326l0.994,1.16
			c-1.046,1.127-2.513,1.74-4.044,1.74c-3.102,0-5.401-2.442-5.401-5.748c0-3.291,2.288-5.708,5.511-5.708
			c1.764,0,3.236,0.766,4.101,2.031L480.734,146.749z"/>
		<path fill="#AAC200" d="M489.938,143.497v9.591h2.568v1.388h-7.105v-1.388h2.797v-8.182h-2.651v-1.409H489.938z M490.353,139.966
			c0,0.679-0.556,1.232-1.243,1.232s-1.243-0.554-1.243-1.232s0.556-1.232,1.243-1.232S490.353,139.286,490.353,139.966z"/>
		<path fill="#AAC200" d="M508.636,143.518h1.761v1.927c0.805-1.222,2.156-2.195,3.645-2.195c1.249,0,2.373,0.701,2.919,1.935
			c0.391,0.882,0.396,1.787,0.396,2.643v6.649h-1.698v-6.607c0-0.774-0.005-1.716-0.599-2.425c-0.394-0.471-0.936-0.694-1.486-0.694
			c-1.159,0-2.213,0.969-2.631,1.526c-0.456,0.607-0.545,1.144-0.545,1.883v6.317h-1.761V143.518z"/>
		<path fill="#AAC200" d="M522.251,143.518v6.111c0,0.735-0.003,1.593,0.387,2.366c0.437,0.867,1.237,1.341,2.096,1.341
			c1.057,0,2.031-0.708,2.533-1.626c0.367-0.669,0.433-1.32,0.433-2.164v-6.028h1.739v9.964c0,0.321,0.02,0.666,0.125,0.994h-1.823
			c-0.046-0.283-0.049-0.569-0.041-0.85l0.021-0.828c-0.715,1.21-2.012,1.947-3.387,1.947c-1.427,0-2.768-0.796-3.407-2.236
			c-0.429-0.964-0.438-1.926-0.436-2.88l0.021-6.111H522.251z"/>
		<path fill="#AAC200" d="M531.91,143.518h1.596l-0.021,1.077c0.505-0.767,1.345-1.347,2.244-1.347c0.983,0,1.769,0.69,1.94,1.596
			c0.426-0.97,1.405-1.595,2.457-1.595c0.616,0,1.295,0.236,1.715,0.871c0.485,0.732,0.447,1.659,0.447,2.567v7.809h-1.637v-7.788
			c0-0.499,0.054-1.126-0.148-1.588c-0.177-0.405-0.516-0.612-0.87-0.612c-0.666,0-1.094,0.683-1.275,0.989
			c-0.404,0.683-0.461,1.152-0.461,1.729v7.25h-1.615v-7.623c0-0.452,0.033-0.98-0.108-1.439c-0.186-0.602-0.625-0.845-1.016-0.845
			c-0.439,0-0.93,0.286-1.326,1.023c-0.311,0.576-0.347,1.056-0.347,1.572v7.312h-1.574V143.518z"/>
		<path fill="#AAC200" d="M546.458,138.505c0.041,0.145-0.09,0.237-0.13,0.27c-0.113,0.09-0.14,0.142-0.14,0.27v6.151
			c0.696-1.205,1.983-1.948,3.38-1.948c2.154,0,4.409,1.78,4.409,5.611c0,3.978-2.336,5.888-4.584,5.888
			c-1.316,0-2.526-0.65-3.246-1.721l-0.601,1.45h-1.118v-15.971H546.458z M546.476,146.335c-0.249,0.604-0.287,1.31-0.287,2.302
			c0,0.948-0.008,1.595,0.067,2.165c0.276,2.091,1.933,2.39,2.683,2.39c1.072,0,3.242-0.612,3.242-3.971
			c0-3.871-2.185-4.488-3.215-4.488C547.881,144.732,546.884,145.347,546.476,146.335z"/>
		<path fill="#AAC200" d="M565.549,147.141c0.108,0.637,0.143,1.341,0.076,2.095h-7.782c0.131,3.283,2.255,4.092,3.722,4.092
			c1.09,0,2.124-0.434,2.839-1.233l0.952,0.932c-0.938,1.129-2.36,1.702-3.925,1.702c-2.979,0-5.266-1.955-5.266-5.608
			c0-4.003,2.423-5.876,5.042-5.876C563.005,143.243,565.051,144.197,565.549,147.141z M563.927,147.909
			c0.206-1.778-1.063-3.338-2.84-3.338c-1.177,0-2.847,0.752-3.188,3.338H563.927z"/>
		<path fill="#AAC200" d="M571.184,143.518l-0.062,2.113c0.718-1.567,2.344-2.378,3.946-2.378c1.231,0,2.241,0.49,2.931,1.197
			l-0.808,1.657c-0.185-0.177-0.263-0.366-0.407-0.55c-0.308-0.394-0.888-0.821-1.811-0.821c-0.775,0-2.084,0.272-3.081,1.848
			c-0.745,1.179-0.771,1.906-0.771,2.568v5.344h-1.74v-10.979H571.184z"/>
		<path fill="#AAC200" d="M594.251,143.518v6.111c0,0.735-0.003,1.593,0.387,2.366c0.437,0.867,1.237,1.341,2.096,1.341
			c1.057,0,2.031-0.708,2.533-1.626c0.367-0.669,0.433-1.32,0.433-2.164v-6.028h1.739v9.964c0,0.321,0.02,0.666,0.125,0.994h-1.823
			c-0.046-0.283-0.049-0.569-0.041-0.85l0.021-0.828c-0.715,1.21-2.012,1.947-3.387,1.947c-1.427,0-2.768-0.796-3.407-2.236
			c-0.429-0.964-0.438-1.926-0.436-2.88l0.021-6.111H594.251z"/>
		<path fill="#AAC200" d="M606.188,143.518v1.678c0.745-1.198,2.057-1.926,3.464-1.926c2.157,0,4.449,1.729,4.449,5.599
			c0,4.021-2.359,5.9-4.601,5.9c-1.332,0-2.56-0.658-3.291-1.743v5.448h-1.761l-0.021-14.956H606.188z M606.477,146.331
			c-0.242,0.569-0.29,1.236-0.29,2.161c0,1.589-0.007,2.492,0.314,3.231c0.433,0.997,1.467,1.513,2.507,1.513
			c1.027,0,3.296-0.554,3.296-4.012c0-3.979-2.322-4.482-3.285-4.482C607.914,144.742,606.894,145.346,606.477,146.331z"/>
		<path fill="#AAC200" d="M633.399,140.266c0.084,0.244-0.088,0.392-0.136,0.648c-0.113,0.608-0.278,2.583-0.278,2.583h3.583v1.43
			h-3.604c-0.139,1.426-0.208,2.856-0.208,4.29c0,1.59,0.058,2.012,0.07,2.108c0.176,1.316,1.026,1.77,1.845,1.77
			c0.676,0,1.525-0.31,2.456-1.001l0.539,1.367c-0.928,0.679-2.2,1.225-3.506,1.225c-1.119,0-1.977-0.436-2.496-1.168
			c-0.639-0.899-0.647-2.001-0.647-2.985c0-1.862,0.075-3.729,0.228-5.605h-2.568l0.021-1.409h2.61l0.207-2.941L633.399,140.266z"/>
		<path fill="#AAC200" d="M645.109,154.766c-2.764,0-5.14-2.352-5.14-5.688c0-3.388,2.396-5.809,5.19-5.809
			c2.492,0,4.882,1.986,4.882,5.772C650.042,152.678,647.706,154.766,645.109,154.766z M641.795,148.929
			c0,2.704,1.58,4.346,3.327,4.346c1.601,0,3.181-1.4,3.181-4.16c0-3.011-1.679-4.376-3.261-4.376
			C643.365,144.738,641.795,146.24,641.795,148.929z"/>
		<path fill="#AAC200" d="M656.726,147.082c-0.788,0-1.419-0.622-1.419-1.379c0-0.755,0.63-1.377,1.419-1.377s1.42,0.622,1.42,1.377
			C658.146,146.459,657.515,147.082,656.726,147.082z M656.726,154.746c-0.788,0-1.419-0.622-1.419-1.379
			c0-0.755,0.63-1.377,1.419-1.377s1.42,0.622,1.42,1.377C658.146,154.123,657.515,154.746,656.726,154.746z"/>
		<path fill="#AAC200" d="M679.577,143l-0.58,1.595l-1.326-0.331l0.518-1.615c0.13-0.404,0.234-0.857,0.234-1.328
			c0-0.521-0.15-1.001-0.15-1.521c0-0.948,0.562-1.318,1.024-1.318c0.472,0,1.081,0.395,1.081,1.481
			C680.378,140.593,680.174,141.358,679.577,143z M683.72,143l-0.58,1.595l-1.326-0.331l0.519-1.615
			c0.129-0.404,0.233-0.857,0.233-1.328c0-0.521-0.15-1.001-0.15-1.521c0-0.948,0.562-1.318,1.025-1.318
			c0.471,0,1.08,0.395,1.08,1.481C684.521,140.593,684.316,141.358,683.72,143z"/>
		<path d="M689.319,138.505c3.899,1.795,6.421,5.684,6.421,9.958c0,4.312-2.565,8.299-6.546,10.197l-0.455-1.45
			c3.243-1.717,5.303-5.066,5.303-8.679c0-3.562-2.006-6.848-5.179-8.534L689.319,138.505z"/>
		<path d="M701.319,138.505c3.899,1.795,6.421,5.684,6.421,9.958c0,4.312-2.565,8.299-6.546,10.197l-0.455-1.45
			c3.243-1.717,5.303-5.066,5.303-8.679c0-3.562-2.006-6.848-5.179-8.534L701.319,138.505z"/>
		<path fill="#636B78" d="M37.357,163.521v0.932c-1.012,2.313-1.958,4.655-2.838,7.022c-0.858,2.311-1.653,4.646-2.382,7.001h-1.885
			c0.887-2.688,1.84-5.354,2.858-7.995c0.695-1.801,1.42-3.59,2.175-5.365h-6.401v-1.595H37.357z"/>
		<path fill="#636B78" d="M37.092,190.874c0,1.441-0.937,2.845-2.386,3.606c1.686,0.777,2.887,2.374,2.887,4.135
			c0,2.278-1.977,4.11-4.604,4.11c-2.576,0-4.542-1.782-4.542-4.011c0-1.726,1.211-3.359,2.986-4.193
			c-1.35-0.689-2.279-2.031-2.279-3.502c0-2.015,1.756-3.687,4.045-3.687C35.393,187.333,37.092,188.903,37.092,190.874z
			 M30.169,198.492c0,1.505,1.27,2.72,2.896,2.72c1.599,0,2.826-1.173,2.826-2.614c0-1.462-1.271-2.785-3.195-3.393
			C31.273,195.796,30.169,197.079,30.169,198.492z M30.768,190.876c0,1.977,2.632,3.003,2.632,3.003
			c1.166-0.626,2.051-1.743,2.051-2.894c0-1.249-1.045-2.243-2.382-2.243C31.764,188.742,30.768,189.697,30.768,190.876z"/>
		<path fill="#0BCCC4" d="M74.6,187.872l-0.787,1.596c-0.074,0.007-0.182-0.036-0.195-0.2c-0.008-0.103,0.011-0.168-0.066-0.285
			c-0.461-0.697-1.34-1.255-2.396-1.255c-0.907,0-1.753,0.404-2.206,1.215c-0.41,0.733-0.399,1.574-0.399,2.368v0.85h3.583v1.367
			h-3.583v8.948h-1.657v-8.948h-2.382v-1.367h2.382v-1.077c0-0.974,0.04-1.887,0.602-2.801c0.766-1.246,2.208-1.911,3.749-1.911
			C72.624,186.371,73.815,186.928,74.6,187.872z"/>
		<path fill="#0BCCC4" d="M81.11,202.766c-2.764,0-5.139-2.352-5.139-5.688c0-3.388,2.396-5.809,5.19-5.809
			c2.492,0,4.882,1.986,4.882,5.772C86.043,200.678,83.707,202.766,81.11,202.766z M77.796,196.929c0,2.704,1.58,4.346,3.328,4.346
			c1.6,0,3.18-1.4,3.18-4.16c0-3.011-1.678-4.376-3.26-4.376C79.366,192.738,77.796,194.24,77.796,196.929z"/>
		<path fill="#0BCCC4" d="M91.184,191.518l-0.062,2.113c0.718-1.567,2.344-2.378,3.946-2.378c1.232,0,2.241,0.49,2.931,1.197
			l-0.808,1.657c-0.185-0.177-0.263-0.366-0.407-0.55c-0.308-0.394-0.888-0.821-1.811-0.821c-0.775,0-2.084,0.272-3.081,1.848
			c-0.746,1.179-0.771,1.906-0.771,2.568v5.344h-1.74v-10.979H91.184z"/>
		<path fill="#BAC8DD" d="M117.939,191.497v9.591h2.569v1.388h-7.105v-1.388h2.796v-8.182h-2.651v-1.409H117.939z M118.354,187.966
			c0,0.679-0.556,1.232-1.244,1.232c-0.687,0-1.243-0.554-1.243-1.232s0.556-1.232,1.244-1.232
			C117.798,186.733,118.354,187.286,118.354,187.966z"/>
		<path fill="#F987DE" d="M141.939,191.497v9.591h2.568v1.388h-7.105v-1.388h2.797v-8.182h-2.651v-1.409H141.939z M142.353,187.966
			c0,0.679-0.556,1.232-1.243,1.232s-1.243-0.554-1.243-1.232s0.556-1.232,1.243-1.232S142.353,187.286,142.353,187.966z"/>
		<path fill="#F987DE" d="M148.636,191.518h1.761v1.927c0.805-1.222,2.156-2.195,3.645-2.195c1.249,0,2.373,0.701,2.919,1.935
			c0.391,0.882,0.396,1.787,0.396,2.643v6.649h-1.698v-6.607c0-0.774-0.005-1.716-0.599-2.425c-0.394-0.471-0.936-0.694-1.486-0.694
			c-1.159,0-2.213,0.969-2.631,1.526c-0.456,0.607-0.545,1.144-0.545,1.883v6.317h-1.761V191.518z"/>
		<path fill="#FB9593" d="M175.184,191.518l-0.062,2.113c0.718-1.567,2.344-2.378,3.946-2.378c1.231,0,2.241,0.49,2.931,1.197
			l-0.808,1.657c-0.185-0.177-0.263-0.366-0.407-0.55c-0.308-0.394-0.888-0.821-1.811-0.821c-0.775,0-2.084,0.272-3.081,1.848
			c-0.745,1.179-0.771,1.906-0.771,2.568v5.344h-1.74v-10.979H175.184z"/>
		<path fill="#FB9593" d="M189.087,191.269c1.702,0,3.094,0.622,3.813,1.821c0.506,0.844,0.538,1.692,0.538,2.592v6.794h-1.636
			v-1.201c-1.196,0.98-2.591,1.471-3.938,1.471c-2.291,0-3.689-1.495-3.689-3.104c0-1.216,0.785-2.497,2.515-3.133
			c1.395-0.513,3.124-0.496,4.739-0.496h0.352v-0.394c0-0.581,0.009-1.286-0.356-1.887c-0.31-0.508-0.953-1.055-2.256-1.055
			c-1.013,0-2.248,0.282-3.146,1.223l-0.85-1.099C186.199,191.744,187.609,191.269,189.087,191.269z M191.451,197.339
			c-1.14,0-2.607-0.072-3.604,0.166c-1.375,0.328-1.934,1.224-1.934,2.02c0,0.98,0.85,1.898,2.303,1.898
			c1.437,0,2.485-0.87,2.884-1.294c0.739-0.786,0.744-1.497,0.744-2.065v-0.725H191.451z"/>
		<path fill="#FB9593" d="M196.636,191.518h1.761v1.927c0.805-1.222,2.156-2.195,3.645-2.195c1.249,0,2.373,0.701,2.919,1.935
			c0.391,0.882,0.396,1.787,0.396,2.643v6.649h-1.698v-6.607c0-0.774-0.005-1.716-0.599-2.425c-0.394-0.471-0.936-0.694-1.486-0.694
			c-1.159,0-2.213,0.969-2.631,1.526c-0.456,0.607-0.545,1.144-0.545,1.883v6.317h-1.761V191.518z"/>
		<path fill="#FB9593" d="M215.14,192.201c0.849-0.711,1.942-1.061,3.045-0.974l0.207,1.409c-0.209-0.036-0.421-0.055-0.633-0.055
			c-0.676,0-1.338,0.185-1.915,0.531c0.364,0.547,0.56,1.193,0.56,1.858c0,2.023-1.779,3.756-3.951,3.756
			c-0.476,0-0.947-0.084-1.394-0.25c-0.107,0.089-0.783,0.646-0.783,1.227c0,0.346,0.245,0.604,0.665,0.72
			c0.233,0.064,0.747,0.138,1.565,0.138c1.243,0,2.567-0.154,3.712,0.311c1.165,0.473,1.705,1.432,1.705,2.381
			c0,1.471-1.332,3.353-5.045,3.353c-3.844,0-4.959-1.402-4.959-2.598c0-0.871,0.606-1.678,1.783-2.429
			c-0.692-0.364-0.879-1.005-0.879-1.461c0-0.705,0.45-1.446,1.241-2.117c-1.005-0.653-1.621-1.77-1.621-2.969
			c0-2.143,1.916-3.878,4.099-3.878C213.542,191.154,214.464,191.527,215.14,192.201z M209.505,203.6
			c0,0.383,0.194,0.986,1.08,1.339c0.829,0.329,1.763,0.358,2.264,0.358c0.733,0,1.661-0.047,2.464-0.48
			c0.754-0.406,1.026-0.979,1.026-1.455c0-0.482-0.292-1.123-1.309-1.276c-0.629-0.095-1.514-0.033-2.322-0.063
			c-0.84-0.031-1.422-0.078-1.837-0.132C210.242,202.235,209.505,202.812,209.505,203.6z M212.437,197.339
			c1.332,0,2.414-1.081,2.414-2.409s-1.081-2.408-2.413-2.408c-1.333,0-2.415,1.08-2.415,2.409
			C210.023,196.258,211.104,197.339,212.437,197.339z"/>
		<path fill="#FB9593" d="M229.549,195.141c0.108,0.637,0.143,1.341,0.076,2.095h-7.782c0.131,3.283,2.255,4.092,3.722,4.092
			c1.09,0,2.124-0.434,2.839-1.233l0.952,0.932c-0.938,1.129-2.36,1.702-3.925,1.702c-2.979,0-5.266-1.955-5.266-5.608
			c0-4.003,2.423-5.876,5.042-5.876C227.005,191.243,229.051,192.197,229.549,195.141z M227.927,195.909
			c0.206-1.778-1.063-3.338-2.84-3.338c-1.177,0-2.847,0.752-3.188,3.338H227.927z"/>
		<path fill="#BAC8DD" d="M241.128,187.955c-0.081,0.047-0.159,0.05-0.193,0.05c-0.095,0-0.171-0.027-0.256-0.027
			c-0.095,0-0.152,0.037-0.217,0.075c-2.805,1.653-4.465,4.711-4.465,8.14c0,3.729,1.934,7.256,5.214,9.162l-0.787,1.264
			c-3.802-1.995-6.097-5.986-6.097-10.346c0-4.394,2.361-8.154,6.076-9.788L241.128,187.955z"/>
		<path fill="#BAC8DD" d="M253.549,195.141c0.108,0.637,0.143,1.341,0.076,2.095h-7.782c0.131,3.283,2.255,4.092,3.722,4.092
			c1.09,0,2.124-0.434,2.839-1.233l0.952,0.932c-0.938,1.129-2.36,1.702-3.925,1.702c-2.979,0-5.266-1.955-5.266-5.608
			c0-4.003,2.423-5.876,5.042-5.876C251.005,191.243,253.051,192.197,253.549,195.141z M251.927,195.909
			c0.206-1.778-1.063-3.338-2.84-3.338c-1.177,0-2.847,0.752-3.188,3.338H251.927z"/>
		<path fill="#BAC8DD" d="M256.636,191.518h1.761v1.927c0.805-1.222,2.156-2.195,3.645-2.195c1.249,0,2.373,0.701,2.919,1.935
			c0.391,0.882,0.396,1.787,0.396,2.643v6.649h-1.698v-6.607c0-0.774-0.005-1.716-0.599-2.425c-0.394-0.471-0.936-0.694-1.486-0.694
			c-1.159,0-2.213,0.969-2.631,1.526c-0.456,0.607-0.545,1.144-0.545,1.883v6.317h-1.761V191.518z"/>
		<path fill="#BAC8DD" d="M275.907,186.505h1.843c0.01,0.164-0.082,0.283-0.131,0.359c-0.086,0.132-0.097,0.199-0.097,0.324
			l0.021,14.272c0.001,0.332,0.018,0.679,0.104,1.015h-1.719c-0.088-0.267-0.104-0.547-0.104-0.808v-0.953
			c-0.688,1.23-1.984,2.004-3.387,2.004c-2.12,0-4.36-1.77-4.36-5.817c0-4.19,2.524-5.675,4.614-5.675
			c1.515,0,2.688,0.76,3.216,1.887V186.505z M269.751,196.619c0,3.612,1.845,4.576,3.087,4.576c1.144,0,2.278-0.765,2.7-2.08
			c0.178-0.554,0.229-1.168,0.229-1.995c0-1.224-0.048-1.836-0.184-2.346c-0.435-1.628-1.851-2.139-2.812-2.139
			C271.509,192.636,269.751,193.497,269.751,196.619z"/>
		<path fill="#BAC8DD" d="M281.32,186.505c3.899,1.795,6.421,5.684,6.421,9.958c0,4.312-2.565,8.299-6.546,10.197l-0.455-1.45
			c3.243-1.717,5.303-5.066,5.303-8.679c0-3.562-2.006-6.848-5.179-8.534L281.32,186.505z"/>
		<path fill="#48D07D" d="M296.726,195.082c-0.788,0-1.419-0.622-1.419-1.379c0-0.755,0.63-1.377,1.419-1.377s1.42,0.622,1.42,1.377
			C298.146,194.459,297.515,195.082,296.726,195.082z M296.726,202.746c-0.788,0-1.419-0.622-1.419-1.379
			c0-0.755,0.63-1.377,1.419-1.377s1.42,0.622,1.42,1.377C298.146,202.123,297.515,202.746,296.726,202.746z"/>
		<path fill="#636B78" d="M28.906,225.357l1.16-1.284c0.255,0.161,0.189,0.42,0.392,0.577c0.005,0.004,0.728,0.543,1.801,0.543
			c1.075,0,2.317-0.542,2.957-2.055c0.158-0.372,0.538-1.381,0.609-3.706c-0.697,1.011-1.85,1.617-3.084,1.617
			c-2.173,0-4.104-1.848-4.104-4.721c0-2.898,1.954-4.954,4.281-4.954c1.561,0,3.283,0.958,4.062,3.245
			c0.348,1.022,0.516,2.313,0.516,4.186c0,2.448-0.378,3.746-0.641,4.438c-0.906,2.39-2.816,3.484-4.641,3.484
			C30.979,226.728,29.788,226.231,28.906,225.357z M35.741,217.755c0.266-3.019-1.157-4.89-2.859-4.89
			c-1.357,0-2.61,1.218-2.61,3.395c0,2.227,1.298,3.324,2.631,3.324C33.98,219.584,35.08,218.869,35.741,217.755z"/>
		<path fill="#FB9593" d="M114.19,215.518v1.678c0.745-1.198,2.056-1.926,3.463-1.926c2.157,0,4.449,1.729,4.449,5.599
			c0,4.021-2.359,5.9-4.601,5.9c-1.332,0-2.559-0.658-3.292-1.743v5.448h-1.76l-0.021-14.956H114.19z M114.477,218.331
			c-0.241,0.569-0.29,1.236-0.29,2.161c0,1.589-0.007,2.492,0.314,3.231c0.433,0.997,1.467,1.513,2.507,1.513
			c1.027,0,3.296-0.554,3.296-4.012c0-3.979-2.323-4.482-3.285-4.482C115.915,216.742,114.895,217.346,114.477,218.331z"/>
		<path fill="#FB9593" d="M127.184,215.518l-0.062,2.113c0.719-1.567,2.345-2.378,3.946-2.378c1.231,0,2.241,0.49,2.932,1.197
			l-0.809,1.657c-0.184-0.177-0.263-0.366-0.406-0.55c-0.309-0.394-0.889-0.821-1.811-0.821c-0.775,0-2.085,0.272-3.081,1.848
			c-0.745,1.179-0.771,1.906-0.771,2.568v5.344h-1.739v-10.979H127.184z"/>
		<path fill="#FB9593" d="M141.939,215.497v9.591h2.568v1.388h-7.105v-1.388h2.797v-8.182h-2.651v-1.409H141.939z M142.353,211.966
			c0,0.679-0.556,1.232-1.243,1.232s-1.243-0.554-1.243-1.232s0.556-1.232,1.243-1.232S142.353,211.286,142.353,211.966z"/>
		<path fill="#FB9593" d="M148.636,215.518h1.761v1.927c0.805-1.222,2.156-2.195,3.645-2.195c1.249,0,2.373,0.701,2.919,1.935
			c0.391,0.882,0.396,1.787,0.396,2.643v6.649h-1.698v-6.607c0-0.774-0.005-1.716-0.599-2.425c-0.394-0.471-0.936-0.694-1.486-0.694
			c-1.159,0-2.213,0.969-2.631,1.526c-0.456,0.607-0.545,1.144-0.545,1.883v6.317h-1.761V215.518z"/>
		<path fill="#FB9593" d="M165.4,212.266c0.084,0.244-0.088,0.392-0.136,0.648c-0.113,0.608-0.278,2.583-0.278,2.583h3.583v1.43
			h-3.604c-0.139,1.426-0.208,2.856-0.208,4.29c0,1.59,0.058,2.012,0.07,2.108c0.176,1.316,1.026,1.77,1.845,1.77
			c0.676,0,1.525-0.31,2.456-1.001l0.539,1.367c-0.928,0.679-2.2,1.225-3.506,1.225c-1.119,0-1.977-0.436-2.496-1.168
			c-0.639-0.899-0.647-2.001-0.647-2.985c0-1.862,0.075-3.729,0.228-5.605h-2.568l0.021-1.409h2.61l0.207-2.941L165.4,212.266z"/>
		<path fill="#BAC8DD" d="M181.128,211.955c-0.081,0.047-0.159,0.05-0.193,0.05c-0.095,0-0.171-0.027-0.256-0.027
			c-0.095,0-0.152,0.037-0.217,0.075c-2.805,1.653-4.465,4.711-4.465,8.14c0,3.729,1.934,7.256,5.214,9.162l-0.787,1.264
			c-3.802-1.995-6.097-5.986-6.097-10.346c0-4.394,2.361-8.154,6.076-9.788L181.128,211.955z"/>
		<path fill="#F987DE" d="M194.599,211.872l-0.787,1.596c-0.074,0.007-0.182-0.036-0.194-0.2c-0.009-0.103,0.011-0.168-0.066-0.285
			c-0.461-0.697-1.34-1.255-2.396-1.255c-0.907,0-1.754,0.404-2.206,1.215c-0.409,0.733-0.398,1.574-0.398,2.368v0.85h3.583v1.367
			h-3.583v8.948h-1.657v-8.948h-2.383v-1.367h2.383v-1.077c0-0.974,0.04-1.887,0.602-2.801c0.767-1.246,2.208-1.911,3.748-1.911
			C192.624,210.371,193.815,210.928,194.599,211.872z"/>
		<path fill="#AAC200" d="M201.856,215l-0.58,1.595l-1.326-0.331l0.519-1.615c0.129-0.404,0.233-0.857,0.233-1.328
			c0-0.521-0.15-1.001-0.15-1.521c0-0.948,0.562-1.318,1.025-1.318c0.471,0,1.08,0.395,1.08,1.481
			C202.657,212.593,202.453,213.358,201.856,215z"/>
		<path fill="#C0B399" d="M208.74,219.661c0.426,0,1.082,0.008,1.605-0.541c0.562-0.591,0.622-1.451,0.622-2.038
			c0-0.58-0.062-1.123-0.062-1.718c0-0.903,0.129-2.253,1.185-3.215c1.151-1.05,2.694-0.961,3.981-0.961h0.726v1.367h-0.829
			c-1.049,0-1.78-0.098-2.426,0.305c-0.924,0.577-0.962,1.746-0.962,2.233c0,0.574,0.071,1.101,0.071,1.687
			c0,0.571-0.064,1.28-0.382,1.93c-0.354,0.725-0.965,1.295-1.708,1.613c0.911,0.316,2.027,1.23,2.027,3.739
			c0,0.741-0.076,1.371-0.076,2.007c0,0.825,0.122,1.876,0.98,2.468c0.656,0.452,1.405,0.403,2.392,0.403h0.892v1.347h-0.87
			c-1.483,0-2.712,0.072-3.749-0.724c-1.265-0.97-1.338-2.611-1.338-3.482c0-0.936,0.09-1.651,0.09-2.399
			c0-1.036-0.162-1.735-0.633-2.197c-0.492-0.482-1.11-0.478-1.517-0.478h-0.497v-1.346H208.74z"/>
		<path fill="#BAC8DD" d="M225.939,215.497v9.591h2.568v1.388h-7.105v-1.388h2.797v-8.182h-2.651v-1.409H225.939z M226.353,211.966
			c0,0.679-0.556,1.232-1.243,1.232s-1.243-0.554-1.243-1.232s0.556-1.232,1.243-1.232S226.353,211.286,226.353,211.966z"/>
		<path fill="#C0B399" d="M241.75,221.007h-0.497c-0.405,0-1.024-0.005-1.517,0.478c-0.471,0.462-0.633,1.161-0.633,2.197
			c0,0.748,0.09,1.464,0.09,2.399c0,0.871-0.073,2.513-1.338,3.482c-1.036,0.796-2.266,0.724-3.748,0.724h-0.87v-1.347h0.891
			c0.986,0,1.735,0.049,2.392-0.403c0.858-0.592,0.98-1.643,0.98-2.468c0-0.636-0.076-1.266-0.076-2.007
			c0-2.509,1.117-3.423,2.027-3.739c-0.742-0.318-1.354-0.889-1.708-1.613c-0.317-0.649-0.381-1.358-0.381-1.93
			c0-0.586,0.07-1.112,0.07-1.687c0-0.487-0.037-1.656-0.962-2.233c-0.646-0.402-1.376-0.305-2.426-0.305h-0.828v-1.367h0.725
			c1.288,0,2.83-0.089,3.981,0.961c1.056,0.962,1.185,2.312,1.185,3.215c0,0.595-0.062,1.138-0.062,1.718
			c0,0.587,0.06,1.447,0.622,2.038c0.524,0.549,1.18,0.541,1.606,0.541h0.476V221.007z"/>
		<path fill="#AAC200" d="M248.726,219.082c-0.788,0-1.419-0.622-1.419-1.379c0-0.755,0.63-1.377,1.419-1.377s1.42,0.622,1.42,1.377
			C250.146,218.459,249.515,219.082,248.726,219.082z M248.726,226.746c-0.788,0-1.419-0.622-1.419-1.379
			c0-0.755,0.63-1.377,1.419-1.377s1.42,0.622,1.42,1.377C250.146,226.123,249.515,226.746,248.726,226.746z"/>
		<path fill="#C0B399" d="M268.74,219.661c0.426,0,1.082,0.008,1.605-0.541c0.562-0.591,0.622-1.451,0.622-2.038
			c0-0.58-0.062-1.123-0.062-1.718c0-0.903,0.129-2.253,1.185-3.215c1.151-1.05,2.694-0.961,3.981-0.961h0.726v1.367h-0.829
			c-1.049,0-1.78-0.098-2.426,0.305c-0.924,0.577-0.962,1.746-0.962,2.233c0,0.574,0.071,1.101,0.071,1.687
			c0,0.571-0.064,1.28-0.382,1.93c-0.354,0.725-0.965,1.295-1.708,1.613c0.911,0.316,2.027,1.23,2.027,3.739
			c0,0.741-0.076,1.371-0.076,2.007c0,0.825,0.122,1.876,0.98,2.468c0.656,0.452,1.405,0.403,2.392,0.403h0.892v1.347h-0.87
			c-1.483,0-2.712,0.072-3.749-0.724c-1.265-0.97-1.338-2.611-1.338-3.482c0-0.936,0.09-1.651,0.09-2.399
			c0-1.036-0.162-1.735-0.633-2.197c-0.492-0.482-1.11-0.478-1.517-0.478h-0.497v-1.346H268.74z"/>
		<path fill="#BAC8DD" d="M289.481,211.5v1.47h-6.919v4.702h5.593v1.45h-5.593v7.354h-1.698V211.5H289.481z"/>
		<path fill="#BAC8DD" d="M297.939,215.497v9.591h2.568v1.388h-7.105v-1.388h2.797v-8.182h-2.651v-1.409H297.939z M298.353,211.966
			c0,0.679-0.556,1.232-1.243,1.232s-1.243-0.554-1.243-1.232s0.556-1.232,1.243-1.232S298.353,211.286,298.353,211.966z"/>
		<path fill="#BAC8DD" d="M306.458,210.505c0.041,0.145-0.09,0.237-0.13,0.27c-0.113,0.09-0.14,0.142-0.14,0.27v6.151
			c0.696-1.205,1.983-1.948,3.379-1.948c2.154,0,4.409,1.78,4.409,5.611c0,3.978-2.336,5.888-4.584,5.888
			c-1.316,0-2.526-0.65-3.246-1.721l-0.601,1.45h-1.118v-15.971H306.458z M306.476,218.335c-0.249,0.604-0.287,1.31-0.287,2.302
			c0,0.948-0.008,1.595,0.067,2.165c0.276,2.091,1.932,2.39,2.682,2.39c1.072,0,3.242-0.612,3.242-3.971
			c0-3.871-2.185-4.488-3.215-4.488C307.881,216.732,306.884,217.347,306.476,218.335z"/>
		<path fill="#BAC8DD" d="M325.128,211.955c-0.081,0.047-0.159,0.05-0.193,0.05c-0.095,0-0.171-0.027-0.256-0.027
			c-0.095,0-0.152,0.037-0.217,0.075c-2.805,1.653-4.465,4.711-4.465,8.14c0,3.729,1.934,7.256,5.214,9.162l-0.787,1.264
			c-3.802-1.995-6.097-5.986-6.097-10.346c0-4.394,2.361-8.154,6.076-9.788L325.128,211.955z"/>
		<path fill="#BAC8DD" d="M333.938,215.497v9.591h2.568v1.388h-7.105v-1.388h2.797v-8.182h-2.651v-1.409H333.938z M334.353,211.966
			c0,0.679-0.556,1.232-1.243,1.232s-1.243-0.554-1.243-1.232s0.556-1.232,1.243-1.232S334.353,211.286,334.353,211.966z"/>
		<path fill="#BAC8DD" d="M341.319,210.505c3.899,1.795,6.421,5.684,6.421,9.958c0,4.312-2.565,8.299-6.546,10.197l-0.455-1.45
			c3.243-1.717,5.303-5.066,5.303-8.679c0-3.562-2.006-6.848-5.179-8.534L341.319,210.505z"/>
		<path fill="#C0B399" d="M361.749,221.007h-0.497c-0.405,0-1.024-0.005-1.517,0.478c-0.471,0.462-0.633,1.161-0.633,2.197
			c0,0.748,0.09,1.464,0.09,2.399c0,0.871-0.073,2.513-1.338,3.482c-1.036,0.796-2.266,0.724-3.748,0.724h-0.87v-1.347h0.891
			c0.986,0,1.735,0.049,2.392-0.403c0.858-0.592,0.98-1.643,0.98-2.468c0-0.636-0.076-1.266-0.076-2.007
			c0-2.509,1.117-3.423,2.027-3.739c-0.742-0.318-1.354-0.889-1.708-1.613c-0.317-0.649-0.381-1.358-0.381-1.93
			c0-0.586,0.07-1.112,0.07-1.687c0-0.487-0.037-1.656-0.962-2.233c-0.646-0.402-1.376-0.305-2.426-0.305h-0.828v-1.367h0.725
			c1.288,0,2.83-0.089,3.981,0.961c1.056,0.962,1.185,2.312,1.185,3.215c0,0.595-0.062,1.138-0.062,1.718
			c0,0.587,0.06,1.447,0.622,2.038c0.524,0.549,1.18,0.541,1.606,0.541h0.476V221.007z"/>
		<path fill="#AAC200" d="M369.855,215l-0.58,1.595l-1.326-0.331l0.519-1.615c0.129-0.404,0.233-0.857,0.233-1.328
			c0-0.521-0.15-1.001-0.15-1.521c0-0.948,0.562-1.318,1.025-1.318c0.471,0,1.08,0.395,1.08,1.481
			C370.656,212.593,370.452,213.358,369.855,215z"/>
		<path fill="#BAC8DD" d="M377.319,210.505c3.899,1.795,6.421,5.684,6.421,9.958c0,4.312-2.565,8.299-6.546,10.197l-0.455-1.45
			c3.243-1.717,5.303-5.066,5.303-8.679c0-3.562-2.006-6.848-5.179-8.534L377.319,210.505z"/>
	</g>
	<rect x="43" y="135" clip-path="url(#SVGID_2_)" fill="#4DA300" width="3" height="48"/>
	<rect x="43" y="207" clip-path="url(#SVGID_2_)" fill="#B38500" width="3" height="24"/>
	<polygon clip-path="url(#SVGID_2_)" fill="#FF2F46" points="43,106 43,111 43,116 48,111 	"/>
</g>
<rect y="0" fill="#373C43" width="12" height="246"/>
<g>
</g>
<g>
</g>
<g>
</g>
<g>
</g>
<g>
</g>
<g>
</g>
</svg>
